<svg width="1292" height="84" viewBox="0 0 1292 84" fill="none" xmlns="http://www.w3.org/2000/svg">
<path fill-rule="evenodd" clip-rule="evenodd" d="M55.9078 2.56667H82.2995V80.5667H55.9078V52.7H27.0245V80.5667H0.632812V2.56667H27.0245V30.4333H55.9078V2.56667ZM56.4078 30.9333H26.5245V3.06667H1.13281V80.0667H26.5245V52.2H56.4078V80.0667H81.7995V3.06667H56.4078V30.9333ZM98.4157 71.7102C90.7072 64.4202 86.377 54.0162 86.377 41.5667C86.377 29.1171 90.7072 18.7131 98.4157 11.4232C106.122 4.13562 117.161 0 130.51 0C143.86 0 154.899 4.13562 162.605 11.4232C170.313 18.7131 174.644 29.1171 174.644 41.5667C174.644 54.0162 170.313 64.4202 162.605 71.7102C154.899 78.9977 143.86 83.1333 130.51 83.1333C117.161 83.1333 106.122 78.9977 98.4157 71.7102ZM143.155 55.3599C146.394 52.1987 148.435 47.5433 148.435 41.5667C148.435 35.59 146.394 30.9346 143.155 27.7734C139.913 24.609 135.437 22.9083 130.51 22.9083C125.584 22.9083 121.108 24.609 117.866 27.7734C114.627 30.9346 112.585 35.59 112.585 41.5667C112.585 47.5433 114.627 52.1987 117.866 55.3599C121.108 58.5243 125.584 60.225 130.51 60.225C135.437 60.225 139.913 58.5243 143.155 55.3599ZM187.774 80.5667L172.638 2.56667H199.427L207.677 52.4333H209.051L220.051 2.56667H241.021L252.021 52.4333H253.395L261.645 2.56667H288.434L273.298 80.5667H238.188L231.221 43.5333H229.851L222.884 80.5667H187.774ZM229.436 43.0333H231.636L238.602 80.0667H272.886L287.827 3.06667H262.069L253.819 52.9333H251.619L240.619 3.06667H220.452L209.452 52.9333H207.252L199.002 3.06667H173.244L188.186 80.0667H222.469L229.436 43.0333ZM303.238 80.5667V2.56667H379.422C395.179 2.56667 405.917 6.66829 412.711 13.6492C419.503 20.6275 422.272 30.3992 422.272 41.5667C422.272 52.6888 419.503 62.46 412.711 69.4495C405.918 76.4417 395.18 80.5667 379.422 80.5667H303.238ZM391.227 54.4236C394.076 51.7718 395.788 47.614 395.788 41.5667C395.788 35.4725 394.075 31.3157 391.228 28.6761C388.373 26.0299 384.297 24.8333 379.422 24.8333H329.722V58.3H379.422C384.295 58.3 388.371 57.0815 391.227 54.4236ZM329.222 58.8V24.3333H379.422C389.322 24.3333 396.288 29.1917 396.288 41.5667C396.288 53.85 389.322 58.8 379.422 58.8H329.222ZM437.484 71.7102C429.776 64.4202 425.445 54.0162 425.445 41.5667C425.445 29.1171 429.776 18.7131 437.484 11.4232C445.19 4.13562 456.229 0 469.579 0C482.928 0 493.967 4.13562 501.673 11.4232C509.382 18.7131 513.712 29.1171 513.712 41.5667C513.712 54.0162 509.382 64.4202 501.673 71.7102C493.967 78.9977 482.928 83.1333 469.579 83.1333C456.229 83.1333 445.19 78.9977 437.484 71.7102ZM482.223 55.3599C485.462 52.1987 487.504 47.5433 487.504 41.5667C487.504 35.59 485.462 30.9346 482.223 27.7734C478.981 24.609 474.505 22.9083 469.579 22.9083C464.652 22.9083 460.176 24.609 456.934 27.7734C453.695 30.9346 451.654 35.59 451.654 41.5667C451.654 47.5433 453.695 52.1987 456.934 55.3599C460.176 58.5243 464.652 60.225 469.579 60.225C474.505 60.225 478.981 58.5243 482.223 55.3599ZM517.807 80.5667V2.56667H547.736L573.311 44.1833H574.823V2.56667H600.573V80.5667H571.289L545.072 38.95H543.557V80.5667H517.807ZM543.057 38.45H545.348L571.565 80.0667H600.073V3.06667H575.323V44.6833H573.032L547.457 3.06667H518.307V80.0667H543.057V38.45ZM689.867 37.0333V80.5667H675.318L674.984 71.3018C669.418 78.2025 659.939 83.1333 646.925 83.1333C623.019 83.1333 604.625 66.5208 604.625 41.5667C604.625 29.1163 608.979 18.7117 616.745 11.4219C624.509 4.13478 635.64 0 649.125 0C667.489 0 686.418 8.87547 689.495 29.9444L689.578 30.5167H663.455L663.328 30.2043C661.863 26.5842 657.036 22.9083 649.675 22.9083C644.103 22.9083 639.399 24.7488 636.091 27.9796C632.784 31.2089 630.833 35.8639 630.833 41.5667C630.833 47.2665 632.828 51.9248 636.072 55.1573C639.317 58.3912 643.839 60.225 648.942 60.225C650.787 60.225 654.056 59.976 657.166 58.6386C660.105 57.3745 662.884 55.1482 664.212 51.2333H647.433V37.0333H689.867ZM664.892 50.7333C664.843 50.9028 664.792 51.0695 664.739 51.2333C661.964 59.7544 652.629 60.725 648.942 60.725C638.492 60.725 630.333 53.2083 630.333 41.5667C630.333 29.925 638.308 22.4083 649.675 22.4083C657.192 22.4083 662.233 26.1667 663.792 30.0167H689C688.976 29.8492 688.95 29.6826 688.924 29.5167C685.674 9.15832 667.219 0.5 649.125 0.5C622.358 0.5 605.125 16.9083 605.125 41.5667C605.125 66.225 623.275 82.6333 646.925 82.6333C660.095 82.6333 669.551 77.5366 674.956 70.5298C675.119 70.3188 675.278 70.1061 675.433 69.8917L675.8 80.0667H689.367V37.5333H647.933V50.7333H664.892ZM733.199 80.5667L718.064 2.56667H744.852L753.102 52.4333H754.477L765.477 2.56667H786.447L797.447 52.4333H798.821L807.071 2.56667H833.86L818.724 80.5667H783.614L776.647 43.5333H775.276L768.31 80.5667H733.199ZM774.862 43.0333H777.062L784.028 80.0667H818.312L833.253 3.06667H807.495L799.245 52.9333H797.045L786.045 3.06667H765.878L754.878 52.9333H752.678L744.428 3.06667H718.67L733.612 80.0667H767.895L774.862 43.0333ZM843.861 71.7102C836.153 64.4202 831.822 54.0162 831.822 41.5667C831.822 29.1171 836.153 18.7131 843.861 11.4232C851.567 4.13562 862.606 0 875.956 0C889.305 0 900.344 4.13562 908.05 11.4232C915.759 18.7131 920.089 29.1171 920.089 41.5667C920.089 54.0162 915.759 64.4202 908.05 71.7102C900.344 78.9977 889.305 83.1333 875.956 83.1333C862.606 83.1333 851.567 78.9977 843.861 71.7102ZM888.6 55.3599C891.839 52.1987 893.881 47.5433 893.881 41.5667C893.881 35.59 891.839 30.9346 888.6 27.7734C885.358 24.609 880.882 22.9083 875.956 22.9083C871.029 22.9083 866.553 24.609 863.311 27.7734C860.072 30.9346 858.031 35.59 858.031 41.5667C858.031 47.5433 860.072 52.1987 863.311 55.3599C866.553 58.5243 871.029 60.225 875.956 60.225C880.882 60.225 885.358 58.5243 888.6 55.3599ZM1044.55 80.5667H1018.47L1008.02 60.675H950.575V80.5667H924.184V2.56667H1007.78C1018.51 2.56667 1026.99 4.86961 1032.79 9.80142C1038.61 14.7462 1041.64 22.2611 1041.64 32.4917C1041.64 42.8296 1037.05 50.2293 1030.61 54.9161L1044.55 80.5667ZM1029.96 54.7667C1036.47 50.1833 1041.14 42.85 1041.14 32.4917C1041.14 12.2333 1029.13 3.06667 1007.78 3.06667H924.684V80.0667H950.075V60.175H1008.33L1018.78 80.0667H1043.71L1029.96 54.7667ZM950.075 41.2V24.15H1006.03C1012.45 24.15 1015.75 27.2667 1015.75 32.675C1015.75 38.0833 1012.45 41.2 1006.03 41.2H950.075ZM950.575 24.65V40.7H1006.03C1009.17 40.7 1011.46 39.9385 1012.96 38.5929C1014.46 37.2553 1015.25 35.275 1015.25 32.675C1015.25 30.075 1014.46 28.0947 1012.96 26.7571C1011.46 25.4115 1009.17 24.65 1006.03 24.65H950.575ZM1142.73 80.5667H1115.54L1095 53.1583H1093.82L1083.56 64.1307V80.5667H1057.26V2.56667H1083.56V33.0917H1084.49L1112.27 2.56667H1141.85L1110.11 37.38L1142.73 80.5667ZM1109.46 37.35L1140.72 3.06667H1112.49L1084.71 33.5917H1083.06V3.06667H1057.76V80.0667H1083.06V63.9333L1093.6 52.6583H1095.25L1115.79 80.0667H1141.73L1109.46 37.35ZM1138.91 53.8083H1162.69L1162.72 54.2821C1162.85 56.7312 1163.93 58.6848 1166.29 60.0642C1168.69 61.4657 1172.43 62.2878 1177.9 62.3334C1182.72 62.3788 1186.19 61.717 1188.43 60.641C1190.66 59.5704 1191.6 58.1329 1191.6 56.6C1191.6 55.4727 1191.3 54.367 1190.15 53.3948C1188.97 52.3956 1186.86 51.4978 1183.14 50.9531L1183.13 50.9523L1173.23 49.3939L1173.23 49.3935C1172.49 49.2726 1171.74 49.1532 1170.99 49.0328C1164.35 47.973 1157.22 46.8364 1151.58 43.9246C1148.42 42.2955 1145.7 40.1008 1143.77 37.0361C1141.84 33.9704 1140.73 30.07 1140.73 25.0667C1140.73 17.3023 1143.9 11.0029 1150.19 6.66536C1156.46 2.34553 1165.79 0 1178.08 0C1189.15 0 1198.65 1.53474 1205.33 5.90235C1212.05 10.3006 1215.84 17.5163 1215.61 28.6521L1215.6 29.1417H1192.05L1191.98 28.7296C1191.54 26.2952 1190.32 24.339 1188.04 22.9746C1185.75 21.5965 1182.34 20.8 1177.53 20.8C1173.35 20.8 1170.47 21.4382 1168.65 22.4551C1166.86 23.4554 1166.11 24.812 1166.11 26.35C1166.11 27.3384 1166.42 28.4162 1167.38 29.3614C1168.36 30.3175 1170.06 31.1821 1172.93 31.631L1172.94 31.6319L1181.09 33.007C1182.78 33.2894 1184.53 33.5464 1186.33 33.8092L1187.04 33.9134C1189.08 34.2127 1191.16 34.5245 1193.23 34.8926C1197.36 35.6284 1201.47 36.5931 1205.1 38.1509C1208.74 39.7099 1211.92 41.8722 1214.2 45.0146C1216.48 48.1614 1217.81 52.2503 1217.81 57.6083C1217.81 66.1494 1214.48 72.5961 1207.77 76.8677C1201.1 81.1144 1191.13 83.1793 1177.89 83.1333C1164.57 83.0874 1154.66 81.0011 1148.14 76.3367C1141.59 71.642 1138.57 64.4015 1138.9 54.2923L1138.91 53.8083ZM1172.85 32.125L1181.01 33.5C1182.7 33.7833 1184.46 34.041 1186.25 34.3035C1200.7 36.4192 1217.31 38.8523 1217.31 57.6083C1217.31 74.3833 1204.3 82.725 1177.9 82.6333C1151.31 82.5417 1138.75 74.2917 1139.4 54.3083H1162.22C1162.5 59.5333 1166.9 62.7417 1177.9 62.8333C1187.61 62.925 1192.1 60.175 1192.1 56.6C1192.1 54.125 1190.73 51.5583 1183.21 50.4583L1173.31 48.9C1172.57 48.779 1171.82 48.6597 1171.07 48.5397C1157 46.2936 1141.23 43.7748 1141.23 25.0667C1141.23 9.85 1153.6 0.5 1178.08 0.5C1200.17 0.5 1215.57 6.64167 1215.11 28.6417H1192.47C1191.55 23.5083 1187.25 20.3 1177.53 20.3C1169.1 20.3 1165.61 22.8667 1165.61 26.35C1165.61 28.55 1166.99 31.2083 1172.85 32.125ZM1243.31 52.15L1243.26 51.7171C1242.53 46.37 1243.56 42.6547 1245.57 39.9688C1247.58 37.3005 1250.51 35.717 1253.45 34.5261C1254.68 34.0296 1255.92 33.5959 1257.11 33.1822C1257.35 33.0995 1257.58 33.0176 1257.81 32.9362C1259.21 32.4443 1260.51 31.9694 1261.62 31.4267C1263.84 30.3391 1265.16 29.0587 1265.16 26.9917C1265.16 25.4858 1264.26 24.1846 1262.56 23.2341C1260.86 22.2802 1258.41 21.7167 1255.48 21.7167C1252.9 21.7167 1249.94 22.0822 1247.64 23.4458C1245.38 24.7841 1243.7 27.1145 1243.7 31.2083V31.7083H1219.81L1219.78 31.2306C1219.32 20.8458 1222.43 13.1387 1228.61 8.0435C1234.76 2.96644 1243.88 0.549999 1255.3 0.549999C1265.93 0.549999 1274.93 2.29608 1281.28 6.10979C1287.67 9.94363 1291.37 15.8554 1291.37 24.0583C1291.37 29.3593 1289.93 32.984 1287.72 35.625C1285.53 38.2511 1282.63 39.8587 1279.78 41.1942C1279.1 41.5141 1278.43 41.8173 1277.77 42.114C1275.64 43.0725 1273.65 43.964 1272.06 45.1375C1270.02 46.6383 1268.68 48.5645 1268.63 51.657L1268.63 52.15H1243.31ZM1243.2 31.2083C1243.2 22.6833 1250.26 21.2167 1255.48 21.2167C1261.44 21.2167 1265.66 23.5083 1265.66 26.9917C1265.66 30.7297 1261.78 32.0826 1257.27 33.6557C1250.39 36.056 1242.03 38.969 1243.75 51.65H1268.13C1268.21 45.8599 1272.66 43.8614 1277.6 41.6413C1283.84 38.8353 1290.87 35.6753 1290.87 24.0583C1290.87 8.01667 1276.48 1.05 1255.3 1.05C1232.57 1.05 1219.37 10.675 1220.28 31.2083H1243.2ZM1255.85 82.0333C1248.71 82.0333 1242.7 76.1332 1242.7 69.0667C1242.7 62.0001 1248.71 56.1 1255.85 56.1C1262.99 56.1 1269 62.0001 1269 69.0667C1269 76.1332 1262.99 82.0333 1255.85 82.0333ZM86.877 41.5667C86.877 66.225 104.019 82.6333 130.51 82.6333C157.002 82.6333 174.144 66.225 174.144 41.5667C174.144 16.9083 157.002 0.5 130.51 0.5C104.019 0.5 86.877 16.9083 86.877 41.5667ZM148.935 41.5667C148.935 53.7583 140.594 60.725 130.51 60.725C120.427 60.725 112.085 53.7583 112.085 41.5667C112.085 29.375 120.427 22.4083 130.51 22.4083C140.594 22.4083 148.935 29.375 148.935 41.5667ZM421.772 41.5667C421.772 19.3833 410.772 3.06667 379.422 3.06667H303.738V80.0667H379.422C410.772 80.0667 421.772 63.6583 421.772 41.5667ZM425.945 41.5667C425.945 66.225 443.087 82.6333 469.579 82.6333C496.07 82.6333 513.212 66.225 513.212 41.5667C513.212 16.9083 496.07 0.5 469.579 0.5C443.087 0.5 425.945 16.9083 425.945 41.5667ZM488.004 41.5667C488.004 53.7583 479.662 60.725 469.579 60.725C459.495 60.725 451.154 53.7583 451.154 41.5667C451.154 29.375 459.495 22.4083 469.579 22.4083C479.662 22.4083 488.004 29.375 488.004 41.5667ZM832.322 41.5667C832.322 66.225 849.464 82.6333 875.956 82.6333C902.447 82.6333 919.589 66.225 919.589 41.5667C919.589 16.9083 902.447 0.5 875.956 0.5C849.464 0.5 832.322 16.9083 832.322 41.5667ZM894.381 41.5667C894.381 53.7583 886.039 60.725 875.956 60.725C865.872 60.725 857.531 53.7583 857.531 41.5667C857.531 29.375 865.872 22.4083 875.956 22.4083C886.039 22.4083 894.381 29.375 894.381 41.5667ZM1243.2 69.0667C1243.2 75.85 1248.98 81.5333 1255.85 81.5333C1262.73 81.5333 1268.5 75.85 1268.5 69.0667C1268.5 62.2833 1262.73 56.6 1255.85 56.6C1248.98 56.6 1243.2 62.2833 1243.2 69.0667Z" fill="#F5DDA0"/>
</svg>
