<svg width="18" height="18" viewBox="0 0 18 18" fill="none" xmlns="http://www.w3.org/2000/svg">
<path d="M13.5259 12.8475L17.0951 16.4159L15.9159 17.595L12.3476 14.0259C11.0199 15.0902 9.36842 15.6691 7.66675 15.6667C3.52675 15.6667 0.166748 12.3067 0.166748 8.16669C0.166748 4.02669 3.52675 0.666687 7.66675 0.666687C11.8067 0.666687 15.1667 4.02669 15.1667 8.16669C15.1692 9.86835 14.5903 11.5198 13.5259 12.8475ZM11.8542 12.2292C12.9118 11.1416 13.5025 9.68371 13.5001 8.16669C13.5001 4.94419 10.8892 2.33335 7.66675 2.33335C4.44425 2.33335 1.83341 4.94419 1.83341 8.16669C1.83341 11.3892 4.44425 14 7.66675 14C9.18377 14.0024 10.6417 13.4118 11.7292 12.3542L11.8542 12.2292Z" fill="#8E8E8E"/>
</svg>
