<svg width="200" height="200" viewBox="0 0 200 200" fill="none" xmlns="http://www.w3.org/2000/svg">
<g clip-path="url(#clip0_675_4582)">
<g opacity="0.6">
<circle cx="102" cy="308" r="187" fill="url(#paint0_linear_675_4582)"/>
<path d="M99 41H149C151.209 41 153 42.7909 153 45V61H99V41Z" fill="#BFC0C5"/>
<path d="M49 112H128V134H59C53.4772 134 49 129.523 49 124V112Z" fill="#F4F5F7"/>
<path d="M116.5 121.513V112H62V46.013C62 39.213 67.3333 37.8464 70 38.013H146C151.6 38.013 154.333 43.6797 155 46.513V61.013H152.5V49.013C152.5 46.513 151.2 41.513 146 41.513C140.8 41.513 138.5 45.8464 138 48.013V121.513C138.5 125.513 137.3 133.613 128.5 134.013C119.7 134.413 116.833 125.846 116.5 121.513Z" fill="url(#paint1_linear_675_4582)"/>
<path d="M76 61H126" stroke="white" stroke-width="6" stroke-linecap="round"/>
<path d="M76 77H122" stroke="white" stroke-width="6" stroke-linecap="round"/>
<path d="M76 93H103" stroke="white" stroke-width="6" stroke-linecap="round"/>
<rect x="168.227" y="113.24" width="4.77872" height="26" rx="2.38936" transform="rotate(-37.0782 168.227 113.24)" fill="url(#paint2_linear_675_4582)"/>
<path fill-rule="evenodd" clip-rule="evenodd" d="M171.972 118.196L169.667 115.147C168.872 114.094 169.08 112.595 170.133 111.8C171.186 111.004 172.684 111.213 173.48 112.265L175.524 114.97C174.56 116.26 173.354 117.358 171.972 118.196Z" fill="#DFE2E7"/>
<circle cx="162" cy="101" r="15" stroke="url(#paint3_linear_675_4582)" stroke-width="6"/>
</g>
</g>
<defs>
<linearGradient id="paint0_linear_675_4582" x1="102" y1="121" x2="102" y2="176.5" gradientUnits="userSpaceOnUse">
<stop stop-color="#FDFDFC"/>
<stop offset="0.447917" stop-color="#FDFDFC" stop-opacity="0"/>
</linearGradient>
<linearGradient id="paint1_linear_675_4582" x1="108.5" y1="38" x2="108.5" y2="134.027" gradientUnits="userSpaceOnUse">
<stop stop-color="#E4E5E4"/>
<stop offset="1" stop-color="#CFCFCF"/>
</linearGradient>
<linearGradient id="paint2_linear_675_4582" x1="172.347" y1="124.827" x2="160.743" y2="126.085" gradientUnits="userSpaceOnUse">
<stop stop-color="#F4F5F8"/>
<stop offset="1" stop-color="#E4E5E8"/>
</linearGradient>
<linearGradient id="paint3_linear_675_4582" x1="144" y1="113" x2="178.5" y2="84.5" gradientUnits="userSpaceOnUse">
<stop stop-color="#E6E6ED"/>
<stop offset="1" stop-color="#F2F5F8"/>
</linearGradient>
<clipPath id="clip0_675_4582">
<rect width="200" height="200" fill="white"/>
</clipPath>
</defs>
</svg>
