<svg width="858" height="95" viewBox="0 0 858 95" fill="none" xmlns="http://www.w3.org/2000/svg">
<path fill-rule="evenodd" clip-rule="evenodd" d="M92.1536 92.1082H62.319L50.5562 69.7176H30.1293V92.1082H0V3.88716H50.4047C62.5184 3.88716 72.1202 6.48418 78.7009 12.0811C85.3052 17.6981 88.737 26.2241 88.737 37.7826C88.737 49.4109 83.6061 57.7671 76.3804 63.0856L92.1536 92.1082ZM75.3749 62.856C82.7008 57.6969 87.9631 49.4423 87.9631 37.7826C87.9631 14.9793 74.4462 4.66103 50.4047 4.66103H0.773869V91.3344H29.3554V68.9438H51.0238L62.7866 91.3344H90.8522L75.3749 62.856ZM29.3554 47.585V28.393H48.4442C55.667 28.393 59.3816 31.9012 59.3816 37.989C59.3816 44.0768 55.667 47.585 48.4442 47.585H29.3554ZM30.1293 29.1669V46.8111H48.4442C51.9411 46.8111 54.4638 45.9614 56.1055 44.4931C57.7335 43.0371 58.6077 40.8716 58.6077 37.989C58.6077 35.1064 57.7335 32.9409 56.1055 31.4849C54.4638 30.0166 51.9411 29.1669 48.4442 29.1669H30.1293ZM95.7663 92.1082V3.88716H175.423V28.3414H125.896V37.8342H173.566V58.1612H125.896V67.654H175.423V92.1082H95.7663ZM125.122 68.4278V57.3873H172.792V38.6081H125.122V27.5676H174.649V4.66103H96.5402V91.3344H174.649V68.4278H125.122ZM250.974 92.1082L247.156 80.655H211.126L207.308 92.1082H176.131L208.584 3.88716H249.698L282.151 92.1082H250.974ZM210.568 79.8811H247.714L251.532 91.3344H281.042L249.158 4.66103H209.124L177.24 91.3344H206.75L210.568 79.8811ZM240.697 58.7287L231.617 31.4885H226.665L217.585 58.7287H240.697ZM218.658 57.9548H239.624L231.06 32.2624H227.222L218.658 57.9548ZM284.397 92.1082V3.88716H390.623C408.395 3.88716 420.546 8.51353 428.246 16.4258C435.943 24.334 439.068 35.3953 439.068 47.9977C439.068 60.5492 435.943 71.6098 428.247 79.5304C420.547 87.4554 408.396 92.1082 390.623 92.1082H284.397ZM403.768 62.3153C406.92 59.3816 408.835 54.7649 408.835 47.9977C408.835 41.1773 406.919 36.5623 403.769 33.6425C400.608 30.7126 396.08 29.3733 390.623 29.3733H314.629V66.6222H390.623C396.077 66.6222 400.606 65.2587 403.768 62.3153ZM313.856 67.396V28.5994H390.623C401.767 28.5994 409.609 34.0681 409.609 47.9977C409.609 61.8242 401.767 67.396 390.623 67.396H313.856ZM470.609 92.1082V3.88716H507.977L522.113 53.3116H523.01L537.146 3.88716H574.514V92.1082H545.726V53.7243H544.813L533.772 92.1082H511.351L500.311 53.7243H499.397V92.1082H470.609ZM498.623 52.9505H500.893L511.934 91.3344H533.189L544.23 52.9505H546.5V91.3344H573.74V4.66103H537.729L523.593 54.0855H521.53L507.394 4.66103H471.383V91.3344H498.623V52.9505ZM592.229 82.0814C583.505 73.8311 578.612 62.062 578.612 47.9977C578.612 33.9334 583.505 22.1644 592.229 13.914C600.95 5.66737 613.431 0.998047 628.501 0.998047C643.571 0.998047 656.052 5.66737 664.773 13.914C673.497 22.1644 678.39 33.9334 678.39 47.9977C678.39 62.062 673.497 73.8311 664.773 82.0814C656.052 90.328 643.571 94.9974 628.501 94.9974C613.431 94.9974 600.95 90.328 592.229 82.0814ZM642.587 63.3727C646.187 59.8585 648.467 54.6749 648.467 47.9977C648.467 41.3205 646.187 36.137 642.587 32.6227C638.981 29.1034 633.997 27.2064 628.501 27.2064C623.005 27.2064 618.021 29.1034 614.415 32.6227C610.815 36.137 608.535 41.3205 608.535 47.9977C608.535 54.6749 610.815 59.8585 614.415 63.3727C618.021 66.892 623.005 68.789 628.501 68.789C633.997 68.789 638.981 66.892 642.587 63.3727ZM774.73 92.1082H744.896L733.133 69.7176H712.706V92.1082H682.577V3.88716H732.981C745.095 3.88716 754.697 6.48418 761.278 12.0811C767.882 17.6981 771.314 26.2241 771.314 37.7826C771.314 49.4109 766.183 57.7671 758.957 63.0856L774.73 92.1082ZM757.952 62.856C765.278 57.6969 770.54 49.4423 770.54 37.7826C770.54 14.9793 757.023 4.66103 732.981 4.66103H683.351V91.3344H711.932V68.9438H733.601L745.363 91.3344H773.429L757.952 62.856ZM711.932 47.585V28.393H731.021C738.244 28.393 741.958 31.9012 741.958 37.989C741.958 44.0768 738.244 47.585 731.021 47.585H711.932ZM712.706 29.1669V46.8111H731.021C734.518 46.8111 737.041 45.9614 738.682 44.4931C740.31 43.0371 741.184 40.8716 741.184 37.989C741.184 35.1064 740.31 32.9409 738.682 31.4849C737.041 30.0166 734.518 29.1669 731.021 29.1669H712.706ZM778.343 92.1082V3.88716H858V28.3414H808.472V37.8342H856.143V58.1612H808.472V67.654H858V92.1082H778.343ZM807.699 68.4278V57.3873H855.369V38.6081H807.699V27.5676H857.226V4.66103H779.117V91.3344H857.226V68.4278H807.699ZM438.294 47.9977C438.294 23.0275 425.912 4.66103 390.623 4.66103H285.171V91.3344H390.623C425.912 91.3344 438.294 72.8647 438.294 47.9977ZM579.386 47.9977C579.386 75.7538 598.681 94.2235 628.501 94.2235C658.321 94.2235 677.616 75.7538 677.616 47.9977C677.616 20.2416 658.321 1.77192 628.501 1.77192C598.681 1.77192 579.386 20.2416 579.386 47.9977ZM649.241 47.9977C649.241 61.721 639.851 69.5629 628.501 69.5629C617.151 69.5629 607.761 61.721 607.761 47.9977C607.761 34.2744 617.151 26.4325 628.501 26.4325C639.851 26.4325 649.241 34.2744 649.241 47.9977Z" fill="#F5DDA0"/>
</svg>
