<svg width="278" height="169" viewBox="0 0 278 169" fill="none" xmlns="http://www.w3.org/2000/svg">
<g clip-path="url(#clip0_183_10016)">
<rect width="278" height="168" transform="translate(0 0.670898)" fill="#FFB800"/>
<circle cx="278" cy="16.2042" r="40" fill="#E2FE52"/>
<circle cx="66" cy="148.204" r="60" fill="#E2FE52"/>
<path d="M169.881 73.8597C169.627 79.9926 167.022 85.9295 162.395 90.919C157.769 95.9085 151.329 99.7263 143.89 101.889C136.452 104.052 128.349 104.463 120.608 103.07C112.867 101.676 105.836 98.5415 100.404 94.062C94.9715 89.5825 91.3828 83.9596 90.0919 77.905C88.801 71.8504 89.8659 65.6363 93.1518 60.049C96.4377 54.4618 101.797 49.7527 108.551 46.5177C115.305 43.2826 123.151 41.6671 131.095 41.8756C141.729 42.1546 151.785 45.679 159.057 51.6754C166.328 57.6717 170.221 65.6501 169.881 73.8597Z" fill="#E2FE52" stroke="#7759E5" stroke-width="2.95979" stroke-miterlimit="10"/>
<path d="M108.17 70.3525L128.796 83.3878L151.957 62.8243" stroke="#7759E5" stroke-width="2.95979" stroke-linecap="round" stroke-linejoin="round"/>
<path d="M188.249 112.463L188.179 83.623L185.132 85.5158L181.835 83.484H181.766L178.538 85.4944L175.269 83.4947H175.131L171.931 85.4837L168.703 83.5054H168.482L165.323 85.4623L162.137 83.5054H161.832L158.716 85.4516L155.571 83.5161H155.183L152.108 85.4302L149.005 83.5268H148.534L145.501 85.4195L142.439 83.5375H142.204L142.245 99.5776H142.204L142.273 128.429L145.307 126.536L148.617 128.568H148.687L151.914 126.547L155.183 128.557H155.322L158.522 126.568L161.749 128.546H161.971L165.129 126.579L168.315 128.536H168.62L171.737 126.6L174.881 128.525H175.269L178.344 126.611L181.447 128.514H181.918L184.952 126.632L188.013 128.503H188.249L188.207 112.463H188.249Z" fill="#E2FE52" stroke="#7759E5" stroke-width="2.95979" stroke-linecap="round" stroke-linejoin="round"/>
<path d="M183.676 92.1037L146.871 92.1582L146.875 93.7195L183.68 93.6649L183.676 92.1037Z" fill="#70F1E0"/>
<path d="M183.664 96.5742L146.859 96.6238L146.862 98.185L183.667 98.1354L183.664 96.5742Z" fill="#70F1E0"/>
<path d="M183.725 101.032L146.919 101.087L146.923 102.648L183.729 102.593L183.725 101.032Z" fill="#70F1E0"/>
<path d="M183.698 105.503L146.893 105.553L146.896 107.114L183.701 107.065L183.698 105.503Z" fill="#70F1E0"/>
<path d="M183.683 109.974L146.878 110.019L146.881 111.569L183.686 111.524L183.683 109.974Z" fill="#70F1E0"/>
</g>
<defs>
<clipPath id="clip0_183_10016">
<rect width="278" height="168" fill="white" transform="translate(0 0.670898)"/>
</clipPath>
</defs>
</svg>
