<svg width="356" height="80" viewBox="0 0 356 80" fill="none" xmlns="http://www.w3.org/2000/svg">
<path fill-rule="evenodd" clip-rule="evenodd" d="M0.66748 77.5412V2.45884H85.0854C96.3216 2.45884 103.571 4.93446 108.017 8.75396C112.481 12.588 114.021 17.6891 114.021 22.7003C114.021 26.9951 112.909 30.1244 111.09 32.5471C109.361 34.8484 107.027 36.4643 104.537 37.8435V38.4562C107.992 40.2547 110.815 42.4582 112.792 45.2747C114.844 48.1968 115.953 51.7353 115.953 56.0702C115.953 62.1683 113.797 67.5832 108.63 71.4494C103.496 75.2914 95.4721 77.5412 83.856 77.5412H0.66748ZM103.878 38.8584V37.4533C109.059 34.6432 113.362 31.0428 113.362 22.7003C113.362 12.9528 107.391 3.11746 85.0854 3.11746H1.3261V76.8825H83.856C106.952 76.8825 115.294 67.9254 115.294 56.0702C115.294 47.64 110.991 42.4588 103.878 38.8584ZM25.651 21.7344H82.5388C88.2468 21.7344 90.0909 24.5445 90.0909 27.3546C90.0909 29.989 88.2468 32.7991 82.5388 32.7991H25.651V21.7344ZM26.3096 32.1405H82.5388C85.2911 32.1405 87.0039 31.4632 88.0207 30.57C89.0299 29.6834 89.4323 28.5153 89.4323 27.3546C89.4323 26.0953 89.0228 24.8846 88.0155 23.9809C87.0008 23.0705 85.2917 22.393 82.5388 22.393H26.3096V32.1405ZM88.5562 55.7076C89.6155 54.6289 90.047 53.2441 90.047 52.0307C90.047 50.7742 89.6166 49.4649 88.5715 48.4677C87.5284 47.4724 85.7984 46.7179 83.0657 46.7179H26.3096V57.607H83.0657C85.7786 57.607 87.5065 56.7766 88.5562 55.7076ZM25.651 58.2656V46.0593H83.0657C88.7737 46.0593 90.7056 49.2206 90.7056 52.0307C90.7056 54.753 88.7737 58.2656 83.0657 58.2656H25.651ZM119.855 77.5412V2.45884H145.497V55.9385H184.838V77.5412H119.855ZM144.838 56.5971V3.11746H120.514V76.8825H184.18V56.5971H144.838ZM196.812 69.0076C189.387 61.986 185.223 51.9697 185.223 40C185.223 28.0303 189.387 18.014 196.812 10.9924C204.233 3.97392 214.856 0 227.682 0C240.507 0 251.13 3.97392 258.551 10.9924C265.976 18.014 270.14 28.0303 270.14 40C270.14 51.9697 265.976 61.986 258.551 69.0076C251.13 76.0261 240.507 80 227.682 80C214.856 80 204.233 76.0261 196.812 69.0076ZM239.669 53.0852C242.734 50.0943 244.674 45.6828 244.674 40C244.674 34.3172 242.734 29.9057 239.669 26.9148C236.601 23.9196 232.359 22.3052 227.682 22.3052C223.004 22.3052 218.762 23.9196 215.694 26.9148C212.629 29.9057 210.689 34.3172 210.689 40C210.689 45.6828 212.629 50.0943 215.694 53.0852C218.762 56.0803 223.004 57.6948 227.682 57.6948C232.359 57.6948 236.601 56.0803 239.669 53.0852ZM355.332 35.4775V77.5412H341.042L340.733 68.9666C335.326 75.4306 326.298 80 314.015 80C291.021 80 273.313 64.012 273.313 40C273.313 28.0291 277.5 18.0122 284.98 10.9907C292.457 3.97282 303.167 0 316.123 0C333.759 0 352.009 8.5297 354.974 28.8401L355.084 29.5939H329.729L329.563 29.1823C328.192 25.7969 323.646 22.3052 316.65 22.3052C311.352 22.3052 306.893 24.0544 303.762 27.1123C300.632 30.1681 298.779 34.5792 298.779 40C298.779 45.4169 300.674 49.8324 303.745 52.8924C306.817 55.9544 311.102 57.6948 315.947 57.6948C317.702 57.6948 320.807 57.4575 323.755 56.1897C326.475 55.0196 329.04 52.9847 330.323 49.4402H314.323V35.4775H355.332ZM331.227 48.7816C331.163 49.0063 331.094 49.2258 331.021 49.4402C328.291 57.4373 319.454 58.3535 315.947 58.3535C305.936 58.3535 298.121 51.1526 298.121 40C298.121 28.8474 305.761 21.6465 316.65 21.6465C323.851 21.6465 328.68 25.247 330.173 28.9352H354.323C354.29 28.7143 354.256 28.4947 354.22 28.2766C351.028 8.90224 333.404 0.658617 316.123 0.658617C290.481 0.658617 273.971 16.3776 273.971 40C273.971 63.6224 291.359 79.3414 314.015 79.3414C326.494 79.3414 335.491 74.5653 340.697 67.9666C340.913 67.6925 341.123 67.4152 341.326 67.135L341.677 76.8825H354.674V36.1361H314.981V48.7816H331.227ZM185.881 40C185.881 63.6224 202.303 79.3414 227.682 79.3414C253.06 79.3414 269.482 63.6224 269.482 40C269.482 16.3776 253.06 0.658617 227.682 0.658617C202.303 0.658617 185.881 16.3776 185.881 40ZM245.332 40C245.332 51.6795 237.341 58.3535 227.682 58.3535C218.022 58.3535 210.031 51.6795 210.031 40C210.031 28.3205 218.022 21.6465 227.682 21.6465C237.341 21.6465 245.332 28.3205 245.332 40Z" fill="#F5DDA0"/>
</svg>
