<svg width="857" height="94" viewBox="0 0 857 94" fill="none" xmlns="http://www.w3.org/2000/svg">
<path d="M90.0784 90.56H62.0127L50.2499 68.1694H28.5816V90.56H0V3.88667H49.6308C73.6723 3.88667 87.1893 14.2049 87.1893 37.0083C87.1893 48.6679 81.9269 56.9225 74.601 62.0816L90.0784 90.56ZM28.5816 27.6187V46.8106H47.6703C54.8931 46.8106 58.6077 43.3024 58.6077 37.2146C58.6077 31.1269 54.8931 27.6187 47.6703 27.6187H28.5816Z" fill="#FFB800"/>
<path d="M95.7663 90.56V3.88667H173.876V26.7932H124.348V37.8337H172.018V56.613H124.348V67.6535H173.876V90.56H95.7663Z" fill="#FFB800"/>
<path d="M250.758 90.56L246.94 79.1068H209.794L205.977 90.56H176.466L208.35 3.88667H248.385L280.268 90.56H250.758ZM216.811 57.9543H239.924L230.844 30.7141H225.891L216.811 57.9543Z" fill="#FFB800"/>
<path d="M389.849 3.88667C425.138 3.88667 437.52 22.2532 437.52 47.2234C437.52 72.0903 425.138 90.56 389.849 90.56H284.397V3.88667H389.849ZM389.849 66.6217C400.993 66.6217 408.835 61.0498 408.835 47.2234C408.835 33.2937 400.993 27.825 389.849 27.825H313.082V66.6217H389.849Z" fill="#FFB800"/>
<path d="M470.609 90.56V3.88667H506.62L520.756 53.3111H522.82L536.956 3.88667H572.966V90.56H545.726V52.1761H543.456L532.416 90.56H511.16L500.119 52.1761H497.849V90.56H470.609Z" fill="#FFB800"/>
<path d="M627.727 93.4491C597.907 93.4491 578.612 74.9795 578.612 47.2234C578.612 19.4672 597.907 0.997559 627.727 0.997559C657.547 0.997559 676.842 19.4672 676.842 47.2234C676.842 74.9795 657.547 93.4491 627.727 93.4491ZM627.727 68.7885C639.077 68.7885 648.467 60.9466 648.467 47.2234C648.467 33.5001 639.077 25.6582 627.727 25.6582C616.377 25.6582 606.987 33.5001 606.987 47.2234C606.987 60.9466 616.377 68.7885 627.727 68.7885Z" fill="#FFB800"/>
<path d="M772.655 90.56H744.589L732.827 68.1694H711.158V90.56H682.577V3.88667H732.208C756.249 3.88667 769.766 14.2049 769.766 37.0083C769.766 48.6679 764.504 56.9225 757.178 62.0816L772.655 90.56ZM711.158 27.6187V46.8106H730.247C737.47 46.8106 741.184 43.3024 741.184 37.2146C741.184 31.1269 737.47 27.6187 730.247 27.6187H711.158Z" fill="#FFB800"/>
<path d="M778.343 90.56V3.88667H856.452V26.7932H806.925V37.8337H854.595V56.613H806.925V67.6535H856.452V90.56H778.343Z" fill="#FFB800"/>
</svg>
