<svg width="575" height="360" viewBox="0 0 575 360" fill="none" xmlns="http://www.w3.org/2000/svg">
<g clip-path="url(#clip0_116_3157)">
<path d="M0 40C0 17.9086 17.9086 0 40 0H575V320C575 342.091 557.091 360 535 360H40C17.9086 360 0 342.091 0 320V40Z" fill="#111111"/>
<path d="M232 125C228.686 128.313 228.686 133.686 232 137C235.314 140.313 240.686 140.313 244 137C247.314 133.686 247.314 128.313 244 125C240.686 121.686 235.314 121.686 232 125ZM330.641 223.641C327.328 226.955 327.328 232.327 330.641 235.641C333.955 238.955 339.328 238.955 342.641 235.641C345.955 232.327 345.955 226.955 342.641 223.641C339.328 220.327 333.955 220.327 330.641 223.641ZM236.875 132.125L335.516 230.766L337.766 228.516L239.125 129.875L236.875 132.125Z" fill="#FFB800"/>
<path d="M238 228C241.314 231.313 246.686 231.313 250 228C253.314 224.686 253.314 219.313 250 216C246.686 212.686 241.314 212.686 238 216C234.686 219.313 234.686 224.686 238 228ZM323.493 142.506C326.807 145.82 332.18 145.82 335.493 142.506C338.807 139.193 338.807 133.82 335.493 130.506C332.18 127.193 326.807 127.193 323.493 130.506C320.18 133.82 320.18 139.193 323.493 142.506ZM245.125 223.125L330.618 137.631L328.368 135.381L242.875 220.875L245.125 223.125Z" fill="#FFB800"/>
<rect x="2.25" width="81.6708" height="81.6708" rx="2.65165" transform="matrix(0.707106 -0.707107 0.707106 0.707107 227.659 181.591)" fill="#111111" stroke="#FFB800" stroke-width="3.18198"/>
<g clip-path="url(#clip1_116_3157)">
<path d="M286.649 178.01C289.027 178.019 291.354 177.322 293.335 176.007C295.316 174.692 296.863 172.819 297.779 170.625C298.694 168.431 298.939 166.014 298.48 163.681C298.022 161.348 296.881 159.203 295.203 157.519C293.524 155.835 291.384 154.686 289.053 154.219C286.721 153.752 284.304 153.988 282.106 154.895C279.909 155.803 278.03 157.343 276.708 159.319C275.386 161.296 274.681 163.62 274.681 165.998C274.681 169.181 275.944 172.234 278.194 174.487C280.443 176.739 283.495 178.006 286.678 178.01H286.649ZM286.649 157.346C288.36 157.346 290.033 157.854 291.456 158.804C292.878 159.755 293.987 161.106 294.642 162.687C295.297 164.268 295.468 166.007 295.134 167.685C294.801 169.364 293.977 170.905 292.767 172.115C291.557 173.325 290.015 174.149 288.337 174.483C286.659 174.816 284.919 174.645 283.339 173.99C281.758 173.336 280.407 172.227 279.456 170.804C278.505 169.381 277.998 167.709 277.998 165.998C278.002 163.704 278.915 161.506 280.536 159.884C282.158 158.263 284.356 157.35 286.649 157.346Z" fill="#FFB800"/>
<path d="M286.649 181.357C281.175 181.364 275.927 183.542 272.057 187.413C268.186 191.284 266.008 196.532 266 202.006V203.686H284.91V207.033H288.271V203.686H307.269V202.006C307.257 196.538 305.082 191.297 301.219 187.428C297.355 183.558 292.117 181.376 286.649 181.357ZM288.33 200.354V191.367H284.91V200.31H269.42C269.819 196.335 271.579 192.62 274.402 189.793C277.224 186.965 280.936 185.198 284.91 184.791V188.05H288.271V184.791C292.277 185.165 296.028 186.921 298.881 189.758C301.734 192.595 303.511 196.336 303.908 200.34L288.33 200.354Z" fill="#FFB800"/>
</g>
<path d="M149.381 277.285C161.346 298.426 165.61 323.062 161.446 346.995C157.283 370.928 144.95 392.677 126.549 408.536C108.148 424.395 84.8171 433.383 60.5318 433.969C36.2466 434.555 12.5095 426.702 -6.63482 411.748C-25.7792 396.795 -39.1463 375.666 -44.4586 351.961C-49.7709 328.257 -46.6997 303.444 -35.7683 281.75C-24.8369 260.057 -6.7216 242.824 15.4909 232.989C37.7034 223.155 62.6388 221.326 86.0483 227.815L58 329L149.381 277.285Z" fill="#7759E4"/>
<path d="M466.77 47.1809C462.648 27.9758 465.782 7.92492 475.568 -9.1063C485.354 -26.1375 501.098 -38.9432 519.765 -45.0545C538.433 -51.1658 558.702 -50.15 576.665 -42.203C594.627 -34.256 609.012 -19.9405 617.046 -2.01629C625.08 15.9079 626.194 36.1717 620.173 54.8685C614.152 73.5653 601.423 89.3712 584.439 99.2392C567.456 109.107 547.42 112.338 528.195 108.31C508.971 104.281 491.918 93.2785 480.324 77.4224L544.5 30.4998L466.77 47.1809Z" fill="#7759E4"/>
</g>
<path d="M0.5 40C0.5 18.1847 18.1848 0.5 40 0.5H574.5V320C574.5 341.815 556.815 359.5 535 359.5H40C18.1848 359.5 0.5 341.815 0.5 320V40Z" stroke="#FFB800"/>
<defs>
<clipPath id="clip0_116_3157">
<path d="M0 40C0 17.9086 17.9086 0 40 0H575V320C575 342.091 557.091 360 535 360H40C17.9086 360 0 342.091 0 320V40Z" fill="white"/>
</clipPath>
<clipPath id="clip1_116_3157">
<rect width="41.3129" height="53.033" fill="white" transform="translate(266 154)"/>
</clipPath>
</defs>
</svg>
