<svg width="1030" height="80" viewBox="0 0 1030 80" fill="none" xmlns="http://www.w3.org/2000/svg">
<path fill-rule="evenodd" clip-rule="evenodd" d="M78.9965 2.45882V24.0613H52.4764V77.5405H26.8345V24.0613H0.314453V2.45882H78.9965ZM27.4931 23.4026V76.8819H51.8178V23.4026H78.3379V3.11743H0.973064V23.4026H27.4931ZM136.426 77.5405L126.415 58.4847H109.031V77.5405H83.3886V2.45882H126.286C136.596 2.45882 144.767 4.66904 150.368 9.43235C155.989 14.2128 158.909 21.4689 158.909 31.306C158.909 41.2023 154.543 48.314 148.393 52.8403L161.112 76.2423L188.253 2.45882H223.245L250.864 77.5405H224.33L221.081 67.793H190.417L187.168 77.5405H136.426ZM189.942 67.1344H221.556L224.805 76.8819H249.92L222.785 3.11743H188.713L161.578 76.8819H186.693L189.942 67.1344ZM147.537 52.645C153.772 48.2542 158.251 41.2291 158.251 31.306C158.251 11.8989 146.747 3.11743 126.286 3.11743H84.0472V76.8819H108.372V57.826H126.813L136.824 76.8819H160.71L147.537 52.645ZM108.372 39.6484V23.3148H124.618C130.765 23.3148 133.926 26.3005 133.926 31.4816C133.926 36.6627 130.765 39.6484 124.618 39.6484H108.372ZM109.031 23.9734V38.9898H124.618C127.594 38.9898 129.741 38.2666 131.138 37.017C132.523 35.7778 133.267 33.9349 133.267 31.4816C133.267 29.0283 132.523 27.1854 131.138 25.9462C129.741 24.6966 127.594 23.9734 124.618 23.9734H109.031ZM215.584 49.1324L207.857 25.9493H203.641L195.914 49.1324H215.584ZM196.827 48.4738H214.67L207.382 26.6079H204.116L196.827 48.4738ZM252.775 77.5405V2.45882H281.727L306.227 42.3267H307.396V2.45882H332.423V77.5405H304.091L278.976 37.6726H277.802V77.5405H252.775ZM277.144 37.0139H279.339L304.454 76.8819H331.765V3.11743H308.055V42.9853H305.859L281.359 3.11743H253.434V76.8819H277.144V37.0139ZM335.527 51.5473H358.656L358.688 52.1713C358.809 54.4588 359.811 56.2747 362.018 57.5648C364.275 58.884 367.827 59.6705 373.053 59.7141C377.659 59.7575 380.948 59.1244 383.058 58.1105C385.154 57.1037 386 55.7783 386 54.4013C386 53.3609 385.722 52.3573 384.674 51.4678C383.583 50.5426 381.598 49.6894 378.045 49.1693L378.038 49.1683L368.554 47.6754L368.55 47.6748C367.842 47.5591 367.125 47.4447 366.402 47.3293C360.043 46.3152 353.187 45.2217 347.751 42.4181C344.703 40.8465 342.07 38.7243 340.203 35.7551C338.334 32.7846 337.263 29.0135 337.263 24.193C337.263 16.6988 340.324 10.6075 346.406 6.41699C352.454 2.24985 361.431 0 373.223 0C383.838 0 392.978 1.47001 399.423 5.68362C405.929 9.93756 409.582 16.9148 409.358 27.6315L409.345 28.2764H386.458L386.361 27.7335C385.953 25.449 384.806 23.6213 382.675 22.3428C380.514 21.0462 377.291 20.2852 372.696 20.2852C368.706 20.2852 365.982 20.8954 364.28 21.8479C362.617 22.7786 361.939 24.0222 361.939 25.4224C361.939 26.3292 362.217 27.3125 363.102 28.1789C364.002 29.0595 365.588 29.8773 368.319 30.304L368.327 30.3052L376.142 31.6224V31.6224C377.753 31.8926 379.431 32.1384 381.149 32.39C381.376 32.4233 381.605 32.4567 381.833 32.4902C383.787 32.777 385.784 33.076 387.769 33.4292C391.734 34.1349 395.68 35.0619 399.179 36.5623C402.682 38.0643 405.765 40.1531 407.97 43.1973C410.178 46.2474 411.466 50.2031 411.466 55.3672C411.466 63.6045 408.252 69.8405 401.765 73.9688C395.329 78.0644 385.738 80.0434 373.045 79.9993C360.272 79.9552 350.726 77.9564 344.442 73.4546C338.102 68.9132 335.194 61.9114 335.507 52.1848L335.527 51.5473ZM378.14 48.5177L368.656 47.0248C367.948 46.909 367.232 46.7947 366.511 46.6796C353.035 44.528 337.921 42.115 337.921 24.193C337.921 9.61572 349.776 0.658611 373.223 0.658611C394.386 0.658611 409.139 6.5422 408.7 27.6178H387.01C386.132 22.7001 382.004 19.6266 372.696 19.6266C364.617 19.6266 361.28 22.0854 361.28 25.4224C361.28 27.5299 362.597 30.0766 368.217 30.9547L376.033 32.2719C377.652 32.5434 379.337 32.7902 381.054 33.0417C394.893 35.0685 410.807 37.3994 410.807 55.3672C410.807 71.4373 398.338 79.4285 373.047 79.3407C347.581 79.2529 335.55 71.3495 336.165 52.2059H358.031C358.294 57.2113 362.509 60.2849 373.047 60.3727C382.356 60.4605 386.658 57.826 386.658 54.4013C386.658 52.0303 385.341 49.5715 378.14 48.5177ZM414.752 77.5405V2.45882H513.299C523.438 2.45882 531.63 4.71523 537.295 9.57698C542.978 14.4545 546.01 21.8614 546.01 31.9207C546.01 41.9799 542.978 49.3865 537.306 54.264C531.653 59.1259 523.482 61.3825 513.386 61.3825H440.394V77.5405H414.752ZM439.736 60.7239H513.386C533.408 60.7239 545.351 51.7668 545.351 31.9207C545.351 12.0745 533.408 3.11743 513.299 3.11743H415.411V76.8819H439.736V60.7239ZM440.394 39.8679H511.191C514.034 39.8679 516.276 39.1673 517.799 37.8638C519.305 36.5738 520.192 34.6204 520.192 31.9207C520.192 29.2208 519.305 27.2664 517.808 25.9762C516.296 24.673 514.076 23.9734 511.279 23.9734H440.394V39.8679ZM511.191 40.5265C517.075 40.5265 520.851 37.6286 520.851 31.9207C520.851 26.2127 517.075 23.3148 511.279 23.3148H439.736V40.5265H511.191ZM601.506 77.5405L598.257 67.793H567.593L564.344 77.5405H537.81L565.429 2.45882H600.42L628.04 77.5405H601.506ZM567.118 67.1344H598.731L601.981 76.8819H627.096L599.961 3.11743H565.889L538.754 76.8819H563.869L567.118 67.1344ZM592.76 49.1324L585.032 25.9493H580.817L573.089 49.1324H592.76ZM574.003 48.4738H591.846L584.558 26.6079H581.292L574.003 48.4738ZM708.379 77.5405H682.988L672.977 58.4847H655.593V77.5405H629.951V2.45882H672.848C683.158 2.45882 691.33 4.66904 696.93 9.43235C702.551 14.2128 705.472 21.4689 705.472 31.306C705.472 41.2023 701.105 48.314 694.955 52.8403L708.379 77.5405ZM694.1 52.645C700.334 48.2542 704.813 41.2291 704.813 31.306C704.813 11.8989 693.309 3.11743 672.848 3.11743H630.61V76.8819H654.934V57.826H673.375L683.386 76.8819H707.272L694.1 52.645ZM654.934 39.6484V23.3148H671.18C677.327 23.3148 680.488 26.3005 680.488 31.4816C680.488 36.6627 677.327 39.6484 671.18 39.6484H654.934ZM655.593 23.9734V38.9898H671.18C674.156 38.9898 676.303 38.2666 677.7 37.017C679.086 35.7778 679.83 33.9349 679.83 31.4816C679.83 29.0283 679.086 27.1854 677.7 25.9462C676.303 24.6966 674.156 23.9734 671.18 23.9734H655.593ZM711.454 77.5405V2.45882H779.247V23.2709H737.096V31.3499H777.666V48.6494H737.096V56.7284H779.247V77.5405H711.454ZM736.437 57.387V47.9908H777.008V32.0085H736.437V22.6123H778.588V3.11743H712.113V76.8819H778.588V57.387H736.437ZM784.107 77.5405V2.45882H813.059L837.559 42.3267H838.728V2.45882H863.755V77.5405H835.423L810.308 37.6726H809.134V77.5405H784.107ZM808.476 37.0139H810.671L835.786 76.8819H863.096V3.11743H839.386V42.9853H837.191L812.691 3.11743H784.766V76.8819H808.476V37.0139ZM949.013 34.16H924.589L924.464 33.6611C923.485 29.7448 921.628 26.9244 919.095 25.0763C916.556 23.2243 913.278 22.305 909.384 22.305C900.104 22.305 892.744 29.1957 892.744 39.9996C892.744 50.8036 900.104 57.6943 909.384 57.6943C913.278 57.6943 916.555 56.775 919.092 54.9031C921.625 53.0349 923.483 50.1719 924.464 46.1658L924.586 45.6637H949.013L948.942 46.3865C947.696 59.1113 942.431 67.5473 935.113 72.7852C927.819 78.0067 918.558 79.9993 909.384 79.9993C896.819 79.9993 886.285 76.0235 878.888 69.0063C871.487 61.9862 867.277 51.9712 867.277 39.9996C867.277 28.0281 871.487 18.0131 878.888 10.993C886.285 3.97584 896.819 0 909.384 0C918.471 0 927.731 1.99302 935.046 7.19082C942.384 12.405 947.696 20.7963 948.942 33.4367L949.013 34.16ZM948.218 46.9809C945.506 71.5757 927.402 79.3407 909.384 79.3407C884.533 79.3407 867.936 63.6218 867.936 39.9996C867.936 16.3775 884.533 0.658611 909.384 0.658611C927.227 0.658611 945.501 8.42257 948.217 32.8427C948.242 33.0609 948.265 33.2805 948.286 33.5013H925.103C923.084 25.4224 917.376 21.6463 909.384 21.6463C899.725 21.6463 892.085 28.8472 892.085 39.9996C892.085 51.1521 899.725 58.3529 909.384 58.3529C917.376 58.3529 923.084 54.5769 925.103 46.3223H948.286C948.265 46.5432 948.242 46.7627 948.218 46.9809ZM1029.69 2.45882L998.979 54.1431V77.5405H973.337V54.055L942.718 2.45882H969.812L985.619 30.2083H986.785L1002.59 2.45882H1029.69ZM987.168 30.8669H985.236L969.429 3.11743H943.875L973.996 53.8744V76.8819H998.32V53.9622L1028.53 3.11743H1002.97L987.168 30.8669Z" fill="#F5DDA0"/>
</svg>
