<svg width="51" height="40" viewBox="0 0 51 40" fill="none" xmlns="http://www.w3.org/2000/svg">
<path d="M44.4207 4.36251C42.9409 8.09364 39.2685 12.6228 34.2568 14.4469C29.5584 16.157 26.1693 15.6169 23.2074 15.2761C20.3595 15.2484 17.2836 14.5943 13.2116 16.0764C9.45288 17.4445 6.80538 20.8912 5.61004 23.4546L0.76763 19.8962C2.56065 16.0511 5.80581 11.3227 10.8175 9.49856C15.516 7.78846 19.0191 8.64179 21.867 8.66943C24.7148 8.69706 27.9047 9.66439 31.9767 8.18231C35.7355 6.81423 38.269 3.05431 39.4643 0.49088L44.4207 4.36251ZM50.3203 19.5968C48.5273 23.442 45.2821 28.1704 40.2704 29.9945C35.572 31.7046 32.1828 31.1645 29.221 30.8236C26.3731 30.796 23.1832 29.8286 19.1112 31.3107C15.3524 32.6788 12.819 36.4387 11.6236 39.0021L6.66719 35.1305C8.46021 31.2854 11.7054 26.557 16.7171 24.7329C21.4155 23.0228 24.8046 23.5629 27.7665 23.9037C30.6144 23.9314 33.6903 24.5855 37.7623 23.1034C41.521 21.7353 44.0545 17.9754 45.2499 15.412L50.3203 19.5968Z" fill="#F5DDA0"/>
</svg>
