<svg width="107" height="110" viewBox="0 0 107 110" fill="none" xmlns="http://www.w3.org/2000/svg">
<rect x="41.0674" y="0.683594" width="75.9313" height="82" rx="6.40151" transform="rotate(30 41.0674 0.683594)" fill="url(#paint0_linear_447_1111)"/>
<path d="M68.6618 56.3988C66.7956 59.4049 64.0796 61.7899 60.8575 63.2518C57.6353 64.7137 54.0519 65.1869 50.5607 64.6114C47.0696 64.036 43.8276 62.4377 41.2451 60.019C38.6626 57.6003 36.8557 54.4698 36.0531 51.0238C35.2505 47.5777 35.4883 43.971 36.7363 40.6601C37.9843 37.3493 40.1864 34.483 43.0641 32.4242C45.9417 30.3654 49.3654 29.2066 52.9019 29.0943C56.4384 28.9821 59.9287 29.9216 62.9311 31.7938C66.9501 34.2999 69.8106 38.2982 70.885 42.9111C71.9594 47.524 71.1598 52.3747 68.6618 56.3988Z" fill="#E2FE52" stroke="#111111" stroke-width="3.69974" stroke-miterlimit="10"/>
<path d="M45.8828 40.9123L50.0759 52.0126L64.9335 46.8986" stroke="#111111" stroke-width="3.69974" stroke-linecap="round" stroke-linejoin="round"/>
<path d="M64.6125 79.7649L72.901 65.3472L71.1804 65.6141L70.4953 63.8657L70.4686 63.8503L68.6447 64.1359L67.961 62.4097L67.9076 62.3788L66.1006 62.6599L65.4267 60.9536L65.3413 60.9043L63.5595 61.1786L62.8955 59.4922L62.778 59.4244L61.0153 59.7026L60.3612 58.0362L60.2117 57.9498L58.4743 58.2213L57.8269 56.5801L57.6453 56.4753L55.9301 56.7453L55.2926 55.124L55.2018 55.0716L50.5932 63.091L50.5771 63.0818L42.2856 77.5048L44.0008 77.2349L44.6913 78.9863L44.718 79.0018L46.5449 78.7108L47.2256 80.4424L47.279 80.4732L49.086 80.1922L49.7599 81.8985L49.8453 81.9478L51.6301 81.6682L52.2942 83.3545L52.4116 83.4223L54.1712 83.1495L54.8285 84.8106L54.978 84.8969L56.7154 84.6255L57.3628 86.2666L57.5443 86.3715L59.2564 86.1068L59.8971 87.7227L59.9878 87.7751L64.5965 79.7557L64.6125 79.7649Z" fill="#E2FE52" stroke="#111111" stroke-width="3.69974" stroke-linecap="round" stroke-linejoin="round"/>
<mask id="path-5-inside-1_447_1111" fill="white">
<path d="M68.7201 68.5796L54.5157 60.415L54.0671 61.1956L68.2715 69.3602L68.7201 68.5796Z"/>
</mask>
<path d="M68.7201 68.5796L54.5157 60.415L54.0671 61.1956L68.2715 69.3602L68.7201 68.5796Z" fill="#70F1E0"/>
<path d="M54.5157 60.415L55.1303 59.3458L54.0611 58.7313L53.4465 59.8005L54.5157 60.415ZM68.7201 68.5796L69.7893 69.1942L70.4039 68.125L69.3347 67.5104L68.7201 68.5796ZM68.2715 69.3602L67.6569 70.4294L68.7261 71.0439L69.3407 69.9747L68.2715 69.3602ZM54.0671 61.1956L52.9979 60.581L52.3833 61.6502L53.4525 62.2648L54.0671 61.1956ZM53.9012 61.4842L68.1056 69.6488L69.3347 67.5104L55.1303 59.3458L53.9012 61.4842ZM67.6509 67.9651L67.2023 68.7456L69.3407 69.9747L69.7893 69.1942L67.6509 67.9651ZM68.8861 68.291L54.6817 60.1264L53.4525 62.2648L67.6569 70.4294L68.8861 68.291ZM55.1363 61.8101L55.585 61.0296L53.4465 59.8005L52.9979 60.581L55.1363 61.8101Z" fill="#111111" mask="url(#path-5-inside-1_447_1111)"/>
<mask id="path-7-inside-2_447_1111" fill="white">
<path d="M67.4264 70.8096L53.2234 62.6426L52.7746 63.423L66.9776 71.5901L67.4264 70.8096Z"/>
</mask>
<path d="M67.4264 70.8096L53.2234 62.6426L52.7746 63.423L66.9776 71.5901L67.4264 70.8096Z" fill="#70F1E0"/>
<path d="M53.2234 62.6426L53.8381 61.5735L52.769 60.9587L52.1543 62.0278L53.2234 62.6426ZM67.4264 70.8096L68.4955 71.4244L69.1102 70.3553L68.0411 69.7405L67.4264 70.8096ZM66.9776 71.5901L66.3628 72.6592L67.4319 73.2739L68.0467 72.2048L66.9776 71.5901ZM52.7746 63.423L51.7055 62.8083L51.0908 63.8774L52.1599 64.4921L52.7746 63.423ZM52.6086 63.7117L66.8116 71.8787L68.0411 69.7405L53.8381 61.5735L52.6086 63.7117ZM66.3573 70.1949L65.9085 70.9753L68.0467 72.2048L68.4955 71.4244L66.3573 70.1949ZM67.5923 70.521L53.3894 62.3539L52.1599 64.4921L66.3628 72.6592L67.5923 70.521ZM53.8437 64.0378L54.2925 63.2573L52.1543 62.0278L51.7055 62.8083L53.8437 64.0378Z" fill="#111111" mask="url(#path-7-inside-2_447_1111)"/>
<mask id="path-9-inside-3_447_1111" fill="white">
<path d="M66.164 73.0498L51.9596 64.8853L51.511 65.6658L65.7153 73.8304L66.164 73.0498Z"/>
</mask>
<path d="M66.164 73.0498L51.9596 64.8853L51.511 65.6658L65.7153 73.8304L66.164 73.0498Z" fill="#70F1E0"/>
<path d="M51.9596 64.8853L52.5742 63.816L51.505 63.2015L50.8904 64.2707L51.9596 64.8853ZM66.164 73.0498L67.2332 73.6644L67.8478 72.5952L66.7786 71.9806L66.164 73.0498ZM65.7153 73.8304L65.1008 74.8996L66.17 75.5141L66.7846 74.4449L65.7153 73.8304ZM51.511 65.6658L50.4418 65.0512L49.8272 66.1204L50.8964 66.735L51.511 65.6658ZM51.345 65.9545L65.5494 74.119L66.7786 71.9806L52.5742 63.816L51.345 65.9545ZM65.0948 72.4353L64.6461 73.2158L66.7846 74.4449L67.2332 73.6644L65.0948 72.4353ZM66.3299 72.7612L52.1255 64.5966L50.8964 66.735L65.1008 74.8996L66.3299 72.7612ZM52.5802 66.2803L53.0288 65.4998L50.8904 64.2707L50.4418 65.0512L52.5802 66.2803Z" fill="#111111" mask="url(#path-9-inside-3_447_1111)"/>
<mask id="path-11-inside-4_447_1111" fill="white">
<path d="M64.8653 75.2764L50.6624 67.1094L50.2136 67.8898L64.4165 76.0569L64.8653 75.2764Z"/>
</mask>
<path d="M64.8653 75.2764L50.6624 67.1094L50.2136 67.8898L64.4165 76.0569L64.8653 75.2764Z" fill="#70F1E0"/>
<path d="M50.6624 67.1094L51.2771 66.0403L50.208 65.4255L49.5933 66.4946L50.6624 67.1094ZM64.8653 75.2764L65.9344 75.8912L66.5492 74.8221L65.4801 74.2073L64.8653 75.2764ZM64.4165 76.0569L63.8018 77.126L64.8709 77.7407L65.4856 76.6716L64.4165 76.0569ZM50.2136 67.8898L49.1445 67.2751L48.5297 68.3442L49.5988 68.9589L50.2136 67.8898ZM50.0476 68.1785L64.2506 76.3455L65.4801 74.2073L51.2771 66.0403L50.0476 68.1785ZM63.7962 74.6617L63.3474 75.4421L65.4856 76.6716L65.9344 75.8912L63.7962 74.6617ZM65.0313 74.9878L50.8283 66.8207L49.5988 68.9589L63.8018 77.126L65.0313 74.9878ZM51.2827 68.5046L51.7315 67.7241L49.5933 66.4946L49.1445 67.2751L51.2827 68.5046Z" fill="#111111" mask="url(#path-11-inside-4_447_1111)"/>
<mask id="path-13-inside-5_447_1111" fill="white">
<path d="M63.5699 77.5055L49.3684 69.3359L48.9226 70.111L63.1241 78.2805L63.5699 77.5055Z"/>
</mask>
<path d="M63.5699 77.5055L49.3684 69.3359L48.9226 70.111L63.1241 78.2805L63.5699 77.5055Z" fill="#70F1E0"/>
<path d="M49.3684 69.3359L49.9834 68.2669L48.9144 67.652L48.2994 68.721L49.3684 69.3359ZM63.5699 77.5055L64.6389 78.1204L65.2539 77.0514L64.1849 76.4365L63.5699 77.5055ZM63.1241 78.2805L62.5092 79.3495L63.5782 79.9644L64.1931 78.8955L63.1241 78.2805ZM48.9226 70.111L47.8536 69.496L47.2386 70.565L48.3076 71.18L48.9226 70.111ZM48.7535 70.4049L62.955 78.5745L64.1849 76.4365L49.9834 68.2669L48.7535 70.4049ZM62.501 76.8905L62.0551 77.6656L64.1931 78.8955L64.6389 78.1204L62.501 76.8905ZM63.7391 77.2115L49.5375 69.042L48.3076 71.18L62.5092 79.3495L63.7391 77.2115ZM49.9916 70.7259L50.4374 69.9509L48.2994 68.721L47.8536 69.496L49.9916 70.7259Z" fill="#111111" mask="url(#path-13-inside-5_447_1111)"/>
<defs>
<linearGradient id="paint0_linear_447_1111" x1="35.7522" y1="8.47359" x2="122.881" y2="85.0069" gradientUnits="userSpaceOnUse">
<stop stop-color="#FFE259"/>
<stop offset="1" stop-color="#DD7815"/>
</linearGradient>
</defs>
</svg>
