<svg width="130" height="121" viewBox="0 0 130 121" fill="none" xmlns="http://www.w3.org/2000/svg">
<rect x="0.92334" y="52.5957" width="104" height="78" rx="12" transform="rotate(-30 0.92334 52.5957)" fill="url(#paint0_linear_447_1431)"/>
<path d="M55.0763 77.2178L59.187 74.8445L61.987 79.6942L46.1676 88.8275L43.3676 83.9778L48.6792 80.9111L43.8126 72.4818C43.0936 74.4365 41.3163 75.6782 39.7228 76.5982L36.6295 71.2404C38.223 70.3204 39.5426 68.8194 40.2792 66.3619L46.6763 62.6686L55.0763 77.2178ZM66.3595 62.0201C64.6274 63.0201 62.3458 62.4283 61.3592 60.7193C60.3725 59.0103 61.0008 56.7385 62.7328 55.7385C64.4649 54.7385 66.7465 55.3303 67.7331 57.0393C68.7198 58.7483 68.0915 61.0201 66.3595 62.0201ZM72.0395 71.8581C70.3074 72.8581 68.0258 72.2663 67.0392 70.5573C66.0525 68.8484 66.6808 66.5766 68.4128 65.5766C70.1449 64.5766 72.4265 65.1684 73.4131 66.8773C74.3998 68.5863 73.7715 70.8581 72.0395 71.8581ZM92.7484 55.4678L96.8591 53.0945L99.6591 57.9442L83.8397 67.0775L81.0397 62.2278L86.3513 59.1611L81.4847 50.7318C80.7657 52.6865 78.9884 53.9282 77.3949 54.8482L74.3016 49.4904C75.8951 48.5704 77.2147 47.0694 77.9513 44.6119L84.3484 40.9186L92.7484 55.4678Z" fill="#111111"/>
<defs>
<linearGradient id="paint0_linear_447_1431" x1="-6.35666" y1="60.0057" x2="74.9654" y2="162.862" gradientUnits="userSpaceOnUse">
<stop stop-color="#FFE259"/>
<stop offset="1" stop-color="#DD7815"/>
</linearGradient>
</defs>
</svg>
