<svg width="1277" height="135" viewBox="0 0 1277 135" fill="none" xmlns="http://www.w3.org/2000/svg">
<path fill-rule="evenodd" clip-rule="evenodd" d="M27.6196 104.541L0 29.4588H26.5273L44.2661 80.3919H45.9645L63.7032 29.4588H90.2306L62.611 104.541H27.6196ZM46.4325 81.0505H43.798L26.0593 30.1175H0.944042L28.0791 103.883H62.1515L89.2865 30.1175H64.1713L46.4325 81.0505ZM92.1419 104.541V29.4588H117.784V104.541H92.1419ZM122.603 104.541V29.4588H190.397V50.2711H148.245V58.3502H188.816V75.6498H148.245V83.7289H190.397V104.541H122.603ZM147.586 84.3875V74.9912H188.157V59.0088H147.586V49.6125H189.738V30.1175H123.262V103.883H189.738V84.3875H147.586ZM273.5 29.4588V51.0615H246.98V104.541H221.338V51.0615H194.818V29.4588H273.5ZM221.996 50.4029V103.883H246.321V50.4029H272.842V30.1175H195.476V50.4029H221.996ZM277.892 104.541V29.4588H306.845L331.345 69.3271H332.514V29.4588H357.541V104.541H329.208L304.093 64.6729H302.92V104.541H277.892ZM302.261 64.0143H304.457L329.572 103.883H356.883V30.1175H333.172V69.9857H330.977L306.476 30.1175H278.551V103.883H302.261V64.0143ZM423.157 104.541L419.908 94.7936H389.244L385.995 104.541H359.461L387.08 29.4588H422.072L449.691 104.541H423.157ZM388.769 94.135H420.383L423.632 103.883H448.747L421.612 30.1175H387.54L360.405 103.883H385.52L388.769 94.135ZM414.411 76.1328L406.684 52.9495H402.468L394.741 76.1328H414.411ZM395.654 75.4742H413.498L406.209 53.6081H402.943L395.654 75.4742ZM451.603 104.541V29.4588H483.406L495.436 71.5225H496.199L508.23 29.4588H540.033V104.541H515.532V71.8738H514.755L505.359 104.541H486.277L476.881 71.8738H476.103V104.541H451.603ZM475.445 71.2151H477.377L486.773 103.883H504.863L514.259 71.2151H516.191V103.883H539.374V30.1175H508.727L496.696 72.1811H494.94L482.909 30.1175H452.261V103.883H475.445V71.2151ZM567.684 104.541V29.4588H668.628C683.753 29.4588 694.094 33.3962 700.648 40.1301C707.198 46.8605 709.857 56.2744 709.857 67C709.857 77.6822 707.198 87.0956 700.648 93.8366C694.095 100.581 683.754 104.541 668.628 104.541H567.684ZM679.815 79.1853C682.497 76.6885 684.127 72.7594 684.127 67C684.127 61.1953 682.497 57.2676 679.816 54.7827C677.126 52.2892 673.272 51.1493 668.628 51.1493H593.414V82.8507H668.628C673.269 82.8507 677.123 81.6903 679.815 79.1853ZM592.755 83.5093V50.4907H668.628C678.112 50.4907 684.786 55.1449 684.786 67C684.786 78.7673 678.112 83.5093 668.628 83.5093H592.755ZM724.128 96.0076C716.703 88.986 712.538 78.9697 712.538 67C712.538 55.0303 716.703 45.014 724.128 37.9924C731.549 30.9739 742.172 27 754.997 27C767.823 27 778.446 30.9739 785.867 37.9924C793.292 45.014 797.456 55.0303 797.456 67C797.456 78.9697 793.292 88.986 785.867 96.0076C778.446 103.026 767.823 107 754.997 107C742.172 107 731.549 103.026 724.128 96.0076ZM766.985 80.0852C770.049 77.0943 771.99 72.6828 771.99 67C771.99 61.3172 770.049 56.9057 766.985 53.9148C763.916 50.9196 759.675 49.3052 754.997 49.3052C750.319 49.3052 746.078 50.9196 743.009 53.9148C739.945 56.9057 738.005 61.3172 738.005 67C738.005 72.6828 739.945 77.0943 743.009 80.0852C746.078 83.0803 750.319 84.6948 754.997 84.6948C759.675 84.6948 763.916 83.0803 766.985 80.0852ZM801.019 104.541V29.4588H829.972L854.472 69.3271H855.641V29.4588H880.668V104.541H852.336L827.22 64.6729H826.047V104.541H801.019ZM825.388 64.0143H827.584L852.699 103.883H880.01V30.1175H856.299V69.9857H854.104L829.603 30.1175H801.678V103.883H825.388V64.0143ZM966.21 62.4775V104.541H951.92L951.611 95.9666C946.203 102.431 937.176 107 924.893 107C901.899 107 884.19 91.012 884.19 67C884.19 55.0291 888.378 45.0122 895.858 37.9907C903.335 30.9728 914.045 27 927.001 27C944.637 27 962.886 35.5297 965.852 55.8401L965.962 56.5939H940.607L940.441 56.1823C939.07 52.7969 934.524 49.3052 927.527 49.3052C922.23 49.3052 917.771 51.0544 914.64 54.1123C911.51 57.1681 909.657 61.5792 909.657 67C909.657 72.4169 911.552 76.8324 914.622 79.8924C917.695 82.9544 921.98 84.6948 926.825 84.6948C928.58 84.6948 931.685 84.4575 934.633 83.1897C937.353 82.0196 939.918 79.9847 941.2 76.4402H925.2V62.4775H966.21ZM942.105 75.7816C942.041 76.0063 941.972 76.2258 941.899 76.4402C939.168 84.4373 930.331 85.3535 926.825 85.3535C916.814 85.3535 908.998 78.1526 908.998 67C908.998 55.8474 916.638 48.6465 927.527 48.6465C934.728 48.6465 939.558 52.247 941.051 55.9352H965.2C965.168 55.7143 965.134 55.4947 965.098 55.2766C961.906 35.9022 944.281 27.6586 927.001 27.6586C901.358 27.6586 884.849 43.3776 884.849 67C884.849 90.6224 902.237 106.341 924.893 106.341C937.371 106.341 946.369 101.565 951.575 94.9666C951.791 94.6925 952 94.4152 952.204 94.135L952.555 103.883H965.552V63.1361H925.859V75.7816H942.105ZM1074.7 61.1603H1050.28L1050.15 60.6614C1049.17 56.7451 1047.32 53.9247 1044.78 52.0765C1042.24 50.2245 1038.97 49.3052 1035.07 49.3052C1025.79 49.3052 1018.43 56.196 1018.43 67C1018.43 77.804 1025.79 84.6948 1035.07 84.6948C1038.97 84.6948 1042.24 83.7755 1044.78 81.9036C1047.31 80.0354 1049.17 77.1724 1050.15 73.1662L1050.27 72.6641H1074.7L1074.63 73.3869C1073.38 86.1118 1068.12 94.5479 1060.8 99.7858C1053.51 105.007 1044.25 107 1035.07 107C1022.51 107 1011.97 103.024 1004.58 96.0069C997.175 88.9867 992.965 78.9716 992.965 67C992.965 55.0284 997.175 45.0133 1004.58 37.9931C1011.97 30.9759 1022.51 27 1035.07 27C1044.16 27 1053.42 28.993 1060.73 34.1909C1068.07 39.4051 1073.38 47.7965 1074.63 60.437L1074.7 61.1603ZM1073.91 73.9813C1071.19 98.5764 1053.09 106.341 1035.07 106.341C1010.22 106.341 993.624 90.6224 993.624 67C993.624 43.3776 1010.22 27.6586 1035.07 27.6586C1052.92 27.6586 1071.19 35.4226 1073.91 59.843C1073.93 60.0612 1073.95 60.2808 1073.97 60.5016H1050.79C1048.77 52.4226 1043.06 48.6465 1035.07 48.6465C1025.41 48.6465 1017.77 55.8474 1017.77 67C1017.77 78.1526 1025.41 85.3535 1035.07 85.3535C1043.06 85.3535 1048.77 81.5774 1050.79 73.3227H1073.97C1073.95 73.5436 1073.93 73.7631 1073.91 73.9813ZM1089.35 96.0076C1081.93 88.986 1077.76 78.9697 1077.76 67C1077.76 55.0303 1081.93 45.014 1089.35 37.9924C1096.77 30.9739 1107.4 27 1120.22 27C1133.05 27 1143.67 30.9739 1151.09 37.9924C1158.52 45.014 1162.68 55.0303 1162.68 67C1162.68 78.9697 1158.52 88.986 1151.09 96.0076C1143.67 103.026 1133.05 107 1120.22 107C1107.4 107 1096.77 103.026 1089.35 96.0076ZM1132.21 80.0852C1135.27 77.0943 1137.21 72.6828 1137.21 67C1137.21 61.3172 1135.27 56.9057 1132.21 53.9148C1129.14 50.9196 1124.9 49.3052 1120.22 49.3052C1115.54 49.3052 1111.3 50.9196 1108.23 53.9148C1105.17 56.9057 1103.23 61.3172 1103.23 67C1103.23 72.6828 1105.17 77.0943 1108.23 80.0852C1111.3 83.0803 1115.54 84.6948 1120.22 84.6948C1124.9 84.6948 1129.14 83.0803 1132.21 80.0852ZM1166.24 104.541V29.4588H1191.89V104.541H1166.24ZM1196.7 104.541V29.4588H1225.66L1250.16 69.3271H1251.33V29.4588H1276.35V104.541H1248.02L1222.9 64.6729H1221.73V104.541H1196.7ZM1221.07 64.0143H1223.27L1248.38 103.883H1275.69V30.1175H1251.98V69.9857H1249.79L1225.29 30.1175H1197.36V103.883H1221.07V64.0143ZM92.8005 103.883H117.125V30.1175H92.8005V103.883ZM709.199 67C709.199 45.7486 698.661 30.1175 668.628 30.1175H568.343V103.883H668.628C698.661 103.883 709.199 88.1636 709.199 67ZM713.197 67C713.197 90.6224 729.619 106.341 754.997 106.341C780.376 106.341 796.797 90.6224 796.797 67C796.797 43.3776 780.376 27.6586 754.997 27.6586C729.619 27.6586 713.197 43.3776 713.197 67ZM772.648 67C772.648 78.6795 764.657 85.3535 754.997 85.3535C745.338 85.3535 737.346 78.6795 737.346 67C737.346 55.3205 745.338 48.6465 754.997 48.6465C764.657 48.6465 772.648 55.3205 772.648 67ZM1078.42 67C1078.42 90.6224 1094.84 106.341 1120.22 106.341C1145.6 106.341 1162.02 90.6224 1162.02 67C1162.02 43.3776 1145.6 27.6586 1120.22 27.6586C1094.84 27.6586 1078.42 43.3776 1078.42 67ZM1137.87 67C1137.87 78.6795 1129.88 85.3535 1120.22 85.3535C1110.56 85.3535 1102.57 78.6795 1102.57 67C1102.57 55.3205 1110.56 48.6465 1120.22 48.6465C1129.88 48.6465 1137.87 55.3205 1137.87 67ZM1166.9 103.883H1191.23V30.1175H1166.9V103.883Z" fill="#F5DDA0"/>
<g clip-path="url(#clip0_226_5150)">
<path d="M714.178 99.128C706.283 100.909 701.72 100.51 700.587 97.9293C698.67 93.5606 707.992 85.5196 716.149 79.5444L716.806 80.6476C704.219 89.8685 700.697 95.3517 701.601 97.4087C702.084 98.5101 704.024 99.0329 707.062 98.881C710.292 98.7185 714.643 97.831 719.994 96.2411C731.047 92.9573 745.08 87.0633 759.508 79.6451C773.936 72.2268 787.023 64.1754 796.357 56.9714C800.876 53.4857 804.258 50.397 806.417 47.7882C808.449 45.3345 809.297 43.3765 808.812 42.2756C807.89 40.1749 801.555 39.6991 786.542 44.6622L786.165 43.4144C795.878 40.2031 807.875 37.3057 809.825 41.7552C811.225 44.9467 806.922 50.4319 797.032 58.0591C787.653 65.2954 774.507 73.3848 760.026 80.8286C745.545 88.2724 731.451 94.1933 720.341 97.4939C718.102 98.1615 716.048 98.7062 714.178 99.128Z" fill="url(#paint0_linear_226_5150)"/>
<path d="M791.922 90.1442C804.515 70.2166 798.569 43.8533 778.641 31.2602C758.713 18.6672 732.35 24.6131 719.757 44.5407C707.164 64.4684 713.11 90.8316 733.038 103.425C752.965 116.018 779.328 110.072 791.922 90.1442Z" fill="#FFC040"/>
<path d="M762.962 107.191C785.958 102.004 800.395 79.1584 795.209 56.1628C790.022 33.1671 767.176 18.7299 744.181 23.9162C721.185 29.1026 706.748 51.9486 711.934 74.9442C717.12 97.9398 739.966 112.377 762.962 107.191Z" fill="#FFD540"/>
<path d="M782.162 35.2407C777.319 30.6695 771.452 27.3246 765.051 25.4859L712.841 74.3844C714.245 80.8969 717.197 86.975 721.449 92.104L782.162 35.2407Z" fill="#FFFF4C"/>
<path d="M789.537 44.4934C788.175 42.1761 786.593 39.9958 784.813 37.9828L724.012 94.929C725.906 96.8348 727.98 98.5536 730.205 100.062L789.537 44.4934Z" fill="#FFFF4C"/>
<path d="M783.985 85.6881C794.465 69.104 789.517 47.164 772.933 36.6839C756.349 26.2037 734.409 31.1519 723.929 47.7361C713.449 64.3202 718.397 86.2602 734.981 96.7404C751.565 107.221 773.505 102.272 783.985 85.6881Z" fill="#FFF840"/>
<path d="M761.378 100.18C780.515 95.8637 792.53 76.8508 788.214 57.7135C783.898 38.5761 764.885 26.5612 745.748 30.8773C726.61 35.1935 714.595 54.2063 718.912 73.3437C723.228 92.481 742.241 104.496 761.378 100.18Z" fill="#FFBD40"/>
<path d="M783.869 85.4243C794.289 68.934 789.369 47.1181 772.879 36.6971C756.388 26.2762 734.572 31.1965 724.152 47.6869C713.731 64.1773 718.651 85.9932 735.141 96.4141C751.632 106.835 773.448 101.915 783.869 85.4243Z" fill="#FFB800"/>
<path d="M761.952 32.0888L719.122 72.1978C720.196 78.8278 723.146 85.0115 727.624 90.0169L779.167 41.7399C774.462 36.9535 768.491 33.6059 761.952 32.0888Z" fill="#FFD540"/>
<path d="M781.696 44.6032L730.316 92.7267C732.337 94.5521 734.561 96.1389 736.945 97.4556L785.981 51.5287C784.825 49.0624 783.387 46.7384 781.696 44.6032Z" fill="#FFD540"/>
<path d="M755.578 98.4967L755.564 98.4997C754.509 98.5222 753.459 98.5063 752.435 98.4547L752.491 97.3783C753.482 97.4295 754.505 97.4442 755.529 97.4228L755.54 97.4203L755.542 97.4983L755.602 98.4911L755.578 98.4967ZM758.745 98.1472L758.575 97.0834C759.578 96.9233 760.584 96.7107 761.565 96.4531L761.838 97.4955C760.824 97.7616 759.783 97.9811 758.745 98.1472ZM749.296 98.1649C748.246 98.0255 747.201 97.8418 746.191 97.6205L746.425 96.5682C747.404 96.7857 748.419 96.9649 749.439 97.0996L749.296 98.1649ZM764.853 96.5408L764.478 95.531C765.429 95.1775 766.374 94.772 767.285 94.3234L767.758 95.2908C766.816 95.7553 765.838 96.175 764.853 96.5408ZM743.142 96.7924C742.135 96.4679 741.14 96.0948 740.185 95.6784L740.614 94.6901C741.536 95.091 742.498 95.4534 743.473 95.7688L743.142 96.7924ZM770.528 93.7671L769.962 92.8501C770.825 92.3174 771.672 91.7347 772.479 91.1189L773.133 91.975C772.297 92.6126 771.421 93.2152 770.528 93.7671ZM737.352 94.2767C736.432 93.7587 735.54 93.1929 734.679 92.5816L735.303 91.7035C736.133 92.2925 736.993 92.8374 737.88 93.336L737.352 94.2767ZM775.551 89.9417L774.817 89.1497C775.56 88.4574 776.278 87.721 776.951 86.9602L777.757 87.6746C777.062 88.4604 776.32 89.2223 775.55 89.9371L775.551 89.9417ZM732.2 90.6167C731.408 89.9173 730.655 89.1768 729.941 88.398L730.735 87.6704C731.423 88.4211 732.149 89.1351 732.912 89.8097L732.2 90.6167ZM779.734 85.2094L778.862 84.5778C779.456 83.7552 780.014 82.8941 780.529 82.0166L781.46 82.5602C780.93 83.4621 780.349 84.3534 779.733 85.2048L779.734 85.2094ZM727.928 85.9555C727.3 85.1075 726.716 84.2281 726.177 83.3208L727.106 82.7694C727.626 83.6456 728.19 84.4947 728.797 85.3135L727.928 85.9555ZM782.918 79.7542L781.939 79.3048C782.363 78.3819 782.745 77.4272 783.075 76.4679L784.094 76.8194C783.751 77.8074 783.352 78.7955 782.917 79.7496L782.918 79.7542ZM724.699 80.524C724.257 79.5763 723.854 78.5919 723.501 77.5989L724.516 77.2388C724.858 78.1998 725.248 79.1517 725.676 80.0682L724.699 80.524ZM784.975 73.7818L783.927 73.5336C784.161 72.5463 784.348 71.535 784.484 70.5286L785.551 70.6709C785.41 71.7092 785.216 72.7572 784.974 73.7772L784.975 73.7818ZM722.586 74.5688C722.33 73.5532 722.122 72.5105 721.958 71.4722L723.023 71.3068C723.179 72.3133 723.381 73.3228 723.631 74.3055L722.586 74.5688ZM785.821 67.5174L784.744 67.4796C784.78 66.4679 784.763 65.4406 784.704 64.4245L784.7 64.348L785.775 64.2788L785.78 64.3562C785.842 65.4089 785.855 66.4726 785.818 67.518L785.821 67.5174ZM722.696 68.2636L721.617 68.3338L721.615 68.295C721.55 67.2563 721.533 66.2067 721.564 65.1753L722.642 65.207C722.612 66.2095 722.627 67.2212 722.69 68.2277L722.696 68.2636ZM784.36 61.3097C784.197 60.3057 783.983 59.2996 783.723 58.3203L784.765 58.0451C785.034 59.0579 785.255 60.0986 785.423 61.137L784.36 61.3097ZM722.876 62.1542L721.807 62.0238C721.935 60.9781 722.113 59.9305 722.337 58.9081L723.39 59.1389C723.168 60.1265 722.995 61.1411 722.871 62.1525L722.876 62.1542ZM782.797 55.4124C782.442 54.4613 782.035 53.518 781.59 52.6053L782.557 52.1306C783.02 53.0738 783.441 54.0511 783.809 55.0338L782.797 55.4124ZM724.187 56.1834L723.161 55.8526C723.485 54.8478 723.86 53.8538 724.279 52.8945L725.267 53.3248C724.858 54.2528 724.495 55.2147 724.182 56.1853L724.187 56.1834ZM780.105 49.9297C779.57 49.068 778.986 48.2212 778.369 47.4151L779.224 46.7599C779.863 47.5943 780.471 48.4693 781.021 49.3621L780.105 49.9297ZM726.626 50.5919L725.687 50.0635C726.205 49.1432 726.771 48.2505 727.382 47.3889L728.26 48.0123C727.671 48.8433 727.125 49.7043 726.626 50.5919ZM776.393 45.0829C775.7 44.3411 774.962 43.6247 774.201 42.9528L774.913 42.145C775.701 42.8387 776.463 43.5801 777.18 44.3473L776.393 45.0829ZM730.151 45.6191L729.342 44.9072C730.04 44.1147 730.779 43.3598 731.557 42.6458L732.286 43.439C731.535 44.1274 730.821 44.8554 730.147 45.62L730.151 45.6191ZM771.811 41.0473C770.987 40.4537 770.125 39.8956 769.247 39.384L769.788 38.4529C770.696 38.9797 771.588 39.5588 772.44 40.1738L771.811 41.0473ZM734.639 41.4978L733.998 40.6323C734.846 40.0044 735.726 39.4205 736.634 38.883L737.183 39.8123C736.306 40.3307 735.455 40.8936 734.635 41.4986L734.639 41.4978ZM766.533 37.9787C765.608 37.5571 764.653 37.177 763.692 36.8479L764.037 35.8298C765.031 36.1696 766.022 36.5628 766.975 36.9998L766.533 37.9787ZM739.884 38.3854L739.426 37.4106C740.367 36.9724 741.349 36.5689 742.347 36.2126L742.71 37.2272C741.743 37.5716 740.792 37.9643 739.881 38.3862L739.884 38.3854ZM760.757 36.0027C759.769 35.7706 758.758 35.5852 757.752 35.4511L757.894 34.383C758.935 34.5215 759.979 34.7141 761.004 34.954L760.757 36.0027ZM745.638 36.3235L745.365 35.2811C746.36 35.0205 747.399 34.7928 748.443 34.6071L748.631 35.6677C747.613 35.8514 746.605 36.0701 745.635 36.3243L745.638 36.3235ZM754.706 35.1986C753.717 35.165 752.713 35.1789 751.719 35.2393L751.672 35.2443L751.561 34.1729L751.643 34.165C752.673 34.1021 753.716 34.087 754.743 34.1217L754.706 35.1986Z" fill="#FFFF4C"/>
<path d="M698.714 19.5089C697.671 18.5262 696.276 16.2786 695.881 15.3152C695.881 15.3152 695.632 18.9784 695.02 20.342C694.309 21.9283 690.94 23.323 690.94 23.323C690.94 23.323 694.571 23.091 695.872 24.1188C696.991 25.0022 698.734 27.6694 698.734 27.6694C698.693 26.7038 699.027 24.5391 699.564 23.2861C700.197 21.822 703.226 20.552 703.226 20.552C703.226 20.552 699.936 20.6553 698.714 19.5089Z" fill="#FFD540"/>
<path d="M715.677 28.2584C715.02 27.6404 714.145 26.2293 713.896 25.6246C713.896 25.6246 713.745 27.9243 713.356 28.7818C712.91 29.7785 710.793 30.6545 710.793 30.6545C710.793 30.6545 713.073 30.5088 713.891 31.1545C714.591 31.7101 715.689 33.3852 715.689 33.3852C715.663 32.7782 715.872 31.4164 716.216 30.6301C716.613 29.7104 718.517 28.9124 718.517 28.9124C718.517 28.9124 716.444 28.9816 715.677 28.2584Z" fill="#FFD540"/>
<path d="M810.043 75.4004C809.5 74.889 808.774 73.7188 808.568 73.2176C808.568 73.2176 808.438 75.1246 808.12 75.834C807.75 76.6607 805.995 77.3867 805.995 77.3867C805.995 77.3867 807.883 77.2663 808.564 77.8012C809.146 78.2607 810.053 79.6495 810.053 79.6495C810.036 79.146 810.205 78.018 810.487 77.3676C810.816 76.6048 812.394 75.9436 812.394 75.9436C812.394 75.9436 810.682 75.9994 810.043 75.4004Z" fill="#FFD540"/>
<path d="M818.834 57.5803C817.765 56.5766 816.333 54.2681 815.928 53.2805C815.928 53.2805 815.673 57.0369 815.046 58.4346C814.316 60.0613 810.86 61.4909 810.86 61.4909C810.86 61.4909 814.585 61.2531 815.919 62.3071C817.066 63.2129 818.853 65.9486 818.853 65.9486C818.811 64.9574 819.154 62.7353 819.707 61.4528C820.356 59.9516 823.462 58.6487 823.462 58.6487C823.462 58.6487 820.088 58.7643 818.834 57.5803Z" fill="#FFD540"/>
<path d="M727.638 119.885C726.983 119.267 726.111 117.863 725.864 117.26C725.864 117.26 725.711 119.552 725.329 120.406C724.883 121.399 722.775 122.271 722.775 122.271C722.775 122.271 725.048 122.126 725.862 122.769C726.561 123.322 727.653 124.992 727.653 124.992C727.628 124.387 727.837 123.035 728.175 122.248C728.57 121.331 730.469 120.535 730.469 120.535C730.469 120.535 728.403 120.605 727.638 119.885Z" fill="#FFD540"/>
<path d="M759.547 79.8096C747.706 85.8975 736.14 90.9556 726.258 94.3907L727.217 95.4347C737.015 91.9897 748.414 86.9885 760.065 80.9979C772.739 74.4808 784.386 67.4694 793.388 60.9743L792.77 59.8419C783.81 66.3172 772.194 73.3063 759.547 79.8096Z" fill="#FFFF4C"/>
<path d="M751.985 66.2824L749.462 66.8514L749.098 65.2392L755.686 63.7534L751.985 66.2824Z" fill="#FFD540"/>
<path fill-rule="evenodd" clip-rule="evenodd" d="M736.625 52.8629L763.365 46.832L778.332 62.2172L771.159 81.5876L744.461 87.6088L736.625 52.8629ZM744.126 56.3873C743.343 56.5639 742.851 57.3421 743.028 58.1253L747.986 80.1074C748.162 80.8906 748.941 81.3824 749.724 81.2057L766.191 77.4917C766.911 77.3293 767.5 76.8138 767.757 76.1217L771.967 64.7537C772.259 63.965 772.071 63.0786 771.485 62.4758L762.557 53.298C762.028 52.7542 761.254 52.5244 760.514 52.6913L744.126 56.3873Z" fill="white"/>
<rect x="730.181" y="72.2003" width="14.7698" height="14.7698" transform="rotate(-57.7096 730.181 72.2003)" fill="white"/>
<rect width="15.7172" height="2.63516" transform="translate(737.402 56.0515) rotate(32.2904)" fill="#FFD540"/>
<rect width="13.2907" height="2.54282" transform="translate(741.227 82.3632) rotate(-57.7096)" fill="#FFB800"/>
<path d="M748.353 75.9231L741.302 82.4792L743.346 83.7708L748.353 75.9231Z" fill="#FFD540"/>
</g>
<defs>
<linearGradient id="paint0_linear_226_5150" x1="723.163" y1="89.3618" x2="808.108" y2="39.063" gradientUnits="userSpaceOnUse">
<stop stop-color="#FFE940"/>
<stop offset="1" stop-color="#FFC040"/>
</linearGradient>
<clipPath id="clip0_226_5150">
<rect width="135" height="135" fill="white" transform="translate(689.176)"/>
</clipPath>
</defs>
</svg>
