<svg width="104" height="80" viewBox="0 0 104 80" fill="none" xmlns="http://www.w3.org/2000/svg">
<path d="M67.3472 8.06731L76.9242 33.9488L76.9641 34.0566L77.0719 34.0965L102.953 43.6735L77.0719 53.2505L76.9641 53.2903L76.9242 53.3982L67.3472 79.2796L57.7702 53.3982L57.7303 53.2903L57.6225 53.2505L31.741 43.6735L57.6225 34.0965L57.7303 34.0566L57.7702 33.9488L67.3472 8.06731Z" stroke="#FFB800" stroke-width="0.5"/>
<path d="M22.0408 0.720385L27.7594 16.1746L27.7993 16.2824L27.9071 16.3223L43.3613 22.0408L27.9071 27.7594L27.7993 27.7993L27.7594 27.9071L22.0408 43.3613L16.3223 27.9071L16.2824 27.7993L16.1746 27.7594L0.720385 22.0408L16.1746 16.3223L16.2824 16.2824L16.3223 16.1746L22.0408 0.720385Z" stroke="#FFB800" stroke-width="0.5"/>
</svg>
