<svg width="266" height="20" viewBox="0 0 266 20" fill="none" xmlns="http://www.w3.org/2000/svg">
<g clip-path="url(#clip0_239_490)">
<line x1="8.30349" y1="34.3814" x2="14.3812" y2="-0.0868329" stroke="#8E8E8E"/>
<line x1="16.3811" y1="34.3814" x2="22.4588" y2="-0.0868329" stroke="#8E8E8E"/>
<line x1="24.4588" y1="34.3814" x2="30.5365" y2="-0.0868329" stroke="#8E8E8E"/>
<line x1="32.5364" y1="34.3814" x2="38.6141" y2="-0.0868329" stroke="#8E8E8E"/>
<line x1="40.614" y1="34.3814" x2="46.6917" y2="-0.0868329" stroke="#8E8E8E"/>
<line x1="48.6922" y1="34.3814" x2="54.7699" y2="-0.0868329" stroke="#8E8E8E"/>
<line x1="56.7698" y1="34.3814" x2="62.8475" y2="-0.0868329" stroke="#8E8E8E"/>
<line x1="64.8474" y1="34.3814" x2="70.9251" y2="-0.0868329" stroke="#8E8E8E"/>
<line x1="72.9251" y1="34.3814" x2="79.0028" y2="-0.0868329" stroke="#8E8E8E"/>
<line x1="81.0027" y1="34.3814" x2="87.0804" y2="-0.0868329" stroke="#8E8E8E"/>
<line x1="89.0804" y1="34.3814" x2="95.158" y2="-0.0868329" stroke="#8E8E8E"/>
<line x1="97.158" y1="34.3814" x2="103.236" y2="-0.0868329" stroke="#8E8E8E"/>
<line x1="105.236" y1="34.3814" x2="111.313" y2="-0.0868329" stroke="#8E8E8E"/>
<line x1="113.313" y1="34.3814" x2="119.391" y2="-0.0868329" stroke="#8E8E8E"/>
<line x1="121.391" y1="34.3814" x2="127.469" y2="-0.0868329" stroke="#8E8E8E"/>
<line x1="129.469" y1="34.3814" x2="135.546" y2="-0.0868329" stroke="#8E8E8E"/>
<line x1="137.547" y1="34.3814" x2="143.624" y2="-0.0868329" stroke="#8E8E8E"/>
<line x1="145.624" y1="34.3814" x2="151.702" y2="-0.0868329" stroke="#8E8E8E"/>
<line x1="153.702" y1="34.3814" x2="159.78" y2="-0.0868329" stroke="#8E8E8E"/>
<line x1="161.78" y1="34.3814" x2="167.857" y2="-0.0868329" stroke="#8E8E8E"/>
<line x1="169.857" y1="34.3814" x2="175.935" y2="-0.0868329" stroke="#8E8E8E"/>
<line x1="177.935" y1="34.3814" x2="184.013" y2="-0.0868329" stroke="#8E8E8E"/>
<line x1="186.012" y1="34.3814" x2="192.09" y2="-0.0868329" stroke="#8E8E8E"/>
<line x1="194.09" y1="34.3814" x2="200.168" y2="-0.0868329" stroke="#8E8E8E"/>
<line x1="202.168" y1="34.3814" x2="208.245" y2="-0.0868329" stroke="#8E8E8E"/>
<line x1="210.245" y1="34.3814" x2="216.323" y2="-0.0868329" stroke="#8E8E8E"/>
<line x1="218.323" y1="34.3814" x2="224.401" y2="-0.0868329" stroke="#8E8E8E"/>
<line x1="226.401" y1="34.3814" x2="232.479" y2="-0.0868329" stroke="#8E8E8E"/>
<line x1="234.479" y1="34.3814" x2="240.556" y2="-0.0868329" stroke="#8E8E8E"/>
<line x1="242.556" y1="34.3814" x2="248.634" y2="-0.0868329" stroke="#8E8E8E"/>
<line x1="250.634" y1="34.3814" x2="256.712" y2="-0.0868329" stroke="#8E8E8E"/>
</g>
<defs>
<clipPath id="clip0_239_490">
<rect width="264.408" height="20" fill="white" transform="translate(0.795898)"/>
</clipPath>
</defs>
</svg>
