<svg width="60" height="60" viewBox="0 0 60 60" fill="none" xmlns="http://www.w3.org/2000/svg">
<rect width="60" height="60" rx="30" fill="#FFB800"/>
<path fill-rule="evenodd" clip-rule="evenodd" d="M18 15.6H40.6262L49.8834 30.706L40.5896 45H18V15.6ZM23.4 19.8C22.7373 19.8 22.2 20.3373 22.2 21V39.6C22.2 40.2627 22.7373 40.8 23.4 40.8H37.334C37.9432 40.8 38.511 40.4919 38.8431 39.9812L44.2974 31.5924C44.6758 31.0103 44.6858 30.2626 44.323 29.6707L38.8008 20.6595C38.4736 20.1255 37.8923 19.8 37.2661 19.8H23.4Z" fill="white"/>
<rect x="9.30005" y="30" width="12.1912" height="12.1912" transform="rotate(-45 9.30005 30)" fill="white"/>
<rect width="14.3146" height="2.4" transform="translate(17.1775 17.2805) rotate(45)" fill="#FFB800"/>
<rect width="14.6954" height="2.4" transform="translate(14.9111 41.5913) rotate(-45)" fill="#FFB800"/>
</svg>
