<svg width="265" height="33" viewBox="0 0 265 33" fill="none" xmlns="http://www.w3.org/2000/svg">
<path d="M28.478 31.8588L37.5849 16.0513L35.1787 11.8481L26.4983 26.9247C26.2241 27.3815 25.7368 27.6861 25.1886 27.6861H16.9954C16.5995 27.6861 16.2035 27.5338 15.9294 27.2597C15.6553 26.9856 15.4726 26.5896 15.4726 26.1937C15.4726 25.9196 15.5335 25.6759 15.6858 25.4322L26.4069 6.82254L21.5641 6.853L12.0613 23.3916C11.7872 23.8789 11.2998 24.153 10.7516 24.153C10.2034 24.153 9.71603 23.8789 9.44191 23.3916L5.29965 16.234C5.17782 15.9903 5.08645 15.7467 5.08645 15.4726C5.08645 15.1984 5.14736 14.9548 5.29965 14.7111L13.706 0L8.86321 0.0304578L0 15.4421L9.50283 31.8588H28.478Z" fill="#0765FF"/>
<path d="M36.2149 0.03125L17.2397 0.0617078L8.13281 15.8693L10.539 20.0725L19.189 5.02633C19.4631 4.56946 19.9504 4.26488 20.4987 4.26488H28.6918C29.0878 4.26488 29.4837 4.41717 29.7578 4.69129C30.032 4.96541 30.2147 5.36136 30.2147 5.75731C30.2147 6.03143 30.1538 6.27509 30.0015 6.51876L19.2804 25.1285L24.1231 25.098L33.626 8.55943C33.9001 8.0721 34.3874 7.79798 34.9357 7.79798C35.4839 7.79798 35.9712 8.0721 36.2453 8.55943L40.3876 15.717C40.5094 15.9607 40.6008 16.2043 40.6008 16.4785C40.6008 16.7526 40.5399 16.9962 40.3876 17.2399L31.9508 31.9205L36.7936 31.8901L45.7482 16.448L36.2149 0.03125Z" fill="#0765FF"/>
<path d="M73.1452 7.48459C74.0869 7.48459 74.8873 7.57876 75.4995 7.72002C76.1116 7.86127 76.6295 8.14379 77.0062 8.52048C77.3829 8.89717 77.6654 9.41512 77.8538 10.0272C78.0421 10.6394 78.0892 11.4398 78.0892 12.3815V24.4355H73.8985V13.182C73.8985 12.8053 73.8985 12.4757 73.8515 12.1932C73.8515 11.9107 73.7573 11.7223 73.6631 11.5811C73.5689 11.4398 73.3806 11.3456 73.1452 11.2986C72.9097 11.2515 72.6272 11.2044 72.2505 11.2044C71.3559 11.2044 70.7438 11.4869 70.5084 12.099C70.2258 12.7111 70.0846 13.4645 70.0846 14.3591V24.3885H65.8939V13.1349C65.8939 12.7111 65.8939 12.3815 65.8468 12.1461C65.8468 11.8636 65.7527 11.6752 65.6585 11.4869C65.5643 11.2986 65.376 11.2044 65.1876 11.1102C64.9522 11.0631 64.6697 11.016 64.2459 11.016C63.8221 11.016 63.4925 11.1573 63.21 11.3927C62.9275 11.6282 62.6921 11.9578 62.5037 12.2874C62.3154 12.664 62.1741 13.0878 62.08 13.5116C61.9858 13.9354 61.9387 14.3591 61.9387 14.7358V24.3885H57.748V7.7671H61.3266L61.6091 9.55637C62.08 8.89717 62.5979 8.37922 63.2571 8.00253C63.9163 7.62585 64.6226 7.4375 65.4231 7.4375C66.459 7.4375 67.2594 7.57876 67.8715 7.86127C68.4837 8.14379 69.0016 8.75591 69.4254 9.69763C69.8491 9.03842 70.3671 8.52048 70.9792 8.04962C71.5913 7.67293 72.2976 7.48459 73.1452 7.48459Z" fill="#0765FF"/>
<path d="M85.1053 24.7635L80.3496 7.8125H84.6344L87.13 20.4315L89.5314 7.8125H93.8162L88.4013 27.0707C87.9305 28.7187 87.0829 29.9429 85.8587 30.7905C84.5873 31.638 83.0806 32.0618 81.2442 32.1089L80.8205 28.9541C81.1972 28.9541 81.5738 28.8599 81.9505 28.7187C82.3272 28.5774 82.7039 28.4362 83.0806 28.2478C83.4102 28.0595 83.7398 27.824 83.9752 27.5886C84.2577 27.3061 84.399 27.0236 84.5403 26.7411L85.1053 24.7635Z" fill="#0765FF"/>
<path d="M111.71 7.48459C112.651 7.48459 113.452 7.57876 114.064 7.72002C114.676 7.86127 115.194 8.14379 115.571 8.52048C115.947 8.89717 116.23 9.41512 116.418 10.0272C116.607 10.6394 116.654 11.4398 116.654 12.3815V24.4355H112.463V13.182C112.463 12.8053 112.463 12.4757 112.416 12.1932C112.416 11.9107 112.322 11.7223 112.228 11.5811C112.133 11.4398 111.945 11.3456 111.71 11.2986C111.474 11.2515 111.192 11.2044 110.815 11.2044C109.92 11.2044 109.308 11.4869 109.073 12.099C108.79 12.7111 108.649 13.4645 108.649 14.3591V24.3885H104.458V13.1349C104.458 12.7111 104.458 12.3815 104.411 12.1461C104.411 11.8636 104.317 11.6752 104.223 11.4869C104.129 11.2986 103.94 11.2044 103.752 11.1102C103.517 11.0631 103.234 11.016 102.81 11.016C102.387 11.016 102.057 11.1573 101.774 11.3927C101.492 11.6282 101.257 11.9578 101.068 12.2874C100.88 12.664 100.739 13.0878 100.644 13.5116C100.55 13.9354 100.503 14.3591 100.503 14.7358V24.3885H96.3125V7.7671H99.891L100.174 9.55637C100.644 8.89717 101.162 8.37922 101.822 8.00253C102.481 7.62585 103.187 7.4375 103.988 7.4375C105.023 7.4375 105.824 7.57876 106.436 7.86127C107.048 8.14379 107.566 8.75591 107.99 9.69763C108.414 9.03842 108.932 8.52048 109.544 8.04962C110.156 7.67293 110.862 7.48459 111.71 7.48459Z" fill="#0765FF"/>
<path d="M126.258 7.48438C127.152 7.48438 127.953 7.62563 128.753 7.86106C129.554 8.09649 130.26 8.47318 130.825 8.99113C131.437 9.50907 131.908 10.0741 132.238 10.8275C132.567 11.5338 132.756 12.3813 132.756 13.323V18.9734C132.756 19.9151 132.614 20.7626 132.285 21.4689C131.955 22.1752 131.484 22.7873 130.919 23.3053C130.354 23.7761 129.648 24.1528 128.895 24.4353C128.094 24.7179 127.247 24.812 126.352 24.812C125.41 24.812 124.516 24.6708 123.715 24.4353C122.915 24.1999 122.208 23.8232 121.596 23.3053C120.984 22.7873 120.513 22.1752 120.184 21.4689C119.854 20.7626 119.713 19.9151 119.713 18.9734V13.323C119.713 12.3813 119.901 11.5338 120.231 10.8275C120.56 10.1212 121.031 9.50907 121.643 8.99113C122.208 8.47318 122.915 8.14358 123.715 7.86106C124.469 7.57855 125.316 7.48438 126.258 7.48438ZM128.565 13.2289C128.565 12.3813 128.377 11.8163 128.047 11.5809C127.718 11.3454 127.105 11.2042 126.258 11.2042C125.504 11.2042 124.892 11.3454 124.516 11.675C124.092 12.0046 123.904 12.5226 123.904 13.2289V18.8792C123.904 19.7738 124.092 20.3859 124.421 20.6214C124.751 20.9039 125.41 20.9981 126.352 20.9981C127.058 20.9981 127.623 20.8568 128 20.5272C128.377 20.1976 128.565 19.6796 128.565 18.8792V13.2289Z" fill="#0765FF"/>
<path d="M143.914 7.4375C145.798 7.4375 147.116 7.90836 147.87 8.89717C148.623 9.83889 149 11.2985 149 13.2291V24.4355H144.809V13.9354C144.809 13.182 144.668 12.5228 144.432 11.9578C144.15 11.4398 143.679 11.1573 142.878 11.1573C142.455 11.1573 142.125 11.2515 141.795 11.4398C141.466 11.6282 141.183 11.8636 140.948 12.1932C140.713 12.5228 140.524 12.8524 140.383 13.2762C140.242 13.6529 140.195 14.0766 140.195 14.5004V24.4355H136.004V7.81419H139.771L140.1 9.55637C140.571 8.803 141.089 8.28505 141.701 7.95545C142.266 7.62584 143.02 7.4375 143.914 7.4375Z" fill="#0765FF"/>
<path d="M159.123 21.0454C159.83 21.0454 160.489 20.9041 161.007 20.5745C161.525 20.2449 162.09 19.8211 162.702 19.209L164.868 21.8929C163.973 22.8346 163.079 23.5409 162.184 24.0589C161.289 24.5297 160.159 24.7651 158.888 24.7651C156.675 24.7651 155.027 24.2943 153.85 23.3526C152.673 22.4108 152.061 20.857 152.061 18.6911V13.2291C152.061 11.2985 152.626 9.88597 153.803 8.89717C154.98 7.95545 156.534 7.4375 158.464 7.4375C159.359 7.4375 160.159 7.57876 160.913 7.86127C161.666 8.14379 162.278 8.52048 162.843 8.99134C163.361 9.50928 163.785 10.1214 164.067 10.8277C164.35 11.534 164.491 12.3344 164.491 13.2291V16.2897L156.11 17.7964V18.6911C156.11 19.5386 156.392 20.1036 156.957 20.4803C157.57 20.857 158.276 21.0454 159.123 21.0454ZM158.511 11.2044C157.805 11.2044 157.193 11.3456 156.769 11.6752C156.345 12.0048 156.11 12.5228 156.11 13.182V15.0183L160.348 14.265V13.2762C160.348 12.617 160.206 12.099 159.924 11.7223C159.641 11.3927 159.123 11.2044 158.511 11.2044Z" fill="#0765FF"/>
<path d="M171.131 24.7635L166.375 7.8125H170.66L173.155 20.4315L175.557 7.8125H179.842L174.427 27.0707C173.956 28.7187 173.108 29.9429 171.884 30.7905C170.613 31.638 169.106 32.0618 167.27 32.1089L166.846 28.9541C167.223 28.9541 167.599 28.8599 167.976 28.7187C168.353 28.5774 168.729 28.4362 169.106 28.2478C169.436 28.0595 169.765 27.824 170.001 27.5886C170.283 27.3061 170.424 27.0236 170.566 26.7411L171.131 24.7635Z" fill="#0765FF"/>
<path d="M180.926 19.8672H185.258V24.4345H180.926V19.8672Z" fill="#0765FF"/>
<path d="M195.568 11.2044C194.203 11.2044 193.497 11.9107 193.497 13.2762V18.9736C193.497 19.7269 193.685 20.2449 194.109 20.5745C194.485 20.9041 195.098 21.0454 195.804 21.0454C196.416 21.0454 196.981 20.9512 197.452 20.7158C197.97 20.4803 198.394 20.1507 198.817 19.6328L201.313 22.2225C200.465 23.1171 199.618 23.7293 198.77 24.153C197.923 24.5768 196.84 24.7651 195.616 24.7651C193.732 24.7651 192.225 24.2943 191.095 23.3055C189.965 22.3167 189.447 20.857 189.447 18.9736V13.2762C189.447 12.3815 189.589 11.5811 189.918 10.8748C190.201 10.1685 190.624 9.55637 191.189 9.03842C191.707 8.52048 192.367 8.14379 193.12 7.86127C193.873 7.57876 194.721 7.4375 195.616 7.4375C196.887 7.4375 197.97 7.62585 198.864 8.04962C199.759 8.42631 200.607 9.17968 201.407 10.3097L198.77 12.8995C198.347 12.3815 197.876 11.9578 197.358 11.6282C196.793 11.3456 196.181 11.2044 195.568 11.2044Z" fill="#0765FF"/>
<path d="M211.013 7.57812C211.531 7.57812 211.907 7.62521 212.143 7.71938C212.378 7.81355 212.614 7.90773 212.849 8.04898L212.143 11.8159C211.531 11.4863 210.918 11.345 210.4 11.345C209.788 11.345 209.317 11.5804 208.941 12.0042C208.564 12.428 208.376 13.0872 208.376 13.9818V24.482H204.279V7.86064H207.34L207.811 9.60282C208.282 8.84944 208.752 8.3315 209.27 8.04898C209.788 7.71938 210.353 7.57812 211.013 7.57812Z" fill="#0765FF"/>
<path d="M221.231 21.0454C221.937 21.0454 222.596 20.9041 223.114 20.5745C223.632 20.2449 224.197 19.8211 224.809 19.209L226.975 21.8929C226.081 22.8346 225.186 23.5409 224.291 24.0589C223.397 24.5297 222.267 24.7651 220.995 24.7651C218.782 24.7651 217.134 24.2943 215.957 23.3526C214.78 22.4108 214.168 20.857 214.168 18.6911V13.2291C214.168 11.2985 214.733 9.88597 215.91 8.89717C217.087 7.95545 218.641 7.4375 220.572 7.4375C221.466 7.4375 222.267 7.57876 223.02 7.86127C223.774 8.14379 224.386 8.52048 224.951 8.99134C225.469 9.50928 225.892 10.1214 226.175 10.8277C226.457 11.534 226.599 12.3344 226.599 13.2291V16.2897L218.217 17.7964V18.6911C218.217 19.5386 218.5 20.1036 219.065 20.4803C219.677 20.857 220.383 21.0454 221.231 21.0454ZM220.619 11.2044C219.912 11.2044 219.3 11.3456 218.877 11.6752C218.453 12.0048 218.217 12.5228 218.217 13.182V15.0183L222.455 14.265V13.2762C222.455 12.617 222.314 12.099 222.031 11.7223C221.749 11.3927 221.231 11.2044 220.619 11.2044Z" fill="#0765FF"/>
<path d="M238.088 0H242.373V24.4376H239.03L238.465 23.025C237.947 23.4959 237.429 23.8726 236.911 24.2022C236.346 24.5318 235.781 24.6731 235.121 24.6731C231.26 24.6731 229.377 22.7425 229.377 18.9286V13.2312C229.377 11.3006 229.848 9.84097 230.79 8.89925C231.731 7.91044 233.191 7.43959 235.169 7.43959C235.545 7.43959 235.828 7.43958 236.11 7.48667C236.393 7.53376 236.628 7.58084 236.817 7.67502C237.052 7.76919 237.24 7.91045 237.476 8.09879C237.664 8.28713 237.9 8.52256 238.182 8.75799V0H238.088ZM238.135 13.7962C238.135 12.9957 237.947 12.3836 237.523 11.8657C237.146 11.3948 236.534 11.1594 235.734 11.1594C234.98 11.1594 234.415 11.3006 234.038 11.6302C233.662 11.9598 233.473 12.4778 233.473 13.1841V18.8344C233.473 19.6819 233.615 20.247 233.944 20.4824C234.274 20.7649 234.839 20.9062 235.686 20.9062C236.44 20.9062 237.005 20.6708 237.476 20.1999C237.9 19.729 238.135 19.1169 238.135 18.3165V13.7962Z" fill="#0765FF"/>
<path d="M246.562 1.36719H250.753V5.65202H246.562V1.36719ZM246.562 7.81797H250.753V24.4393H246.562V7.81797Z" fill="#0765FF"/>
<path d="M261.019 20.9558C261.678 20.9558 262.243 20.8616 262.667 20.7204C263.091 20.5791 263.514 20.3908 263.938 20.2495L264.739 23.2159C264.032 23.5926 263.326 23.9222 262.573 24.2047C261.819 24.4873 261.113 24.6756 260.407 24.6756C258.759 24.6756 257.629 24.3931 256.969 23.781C256.31 23.1689 255.933 22.0859 255.933 20.4379V10.6911H253.344V7.81882H255.933V2.92188H260.124V7.81882H263.326V10.6911H260.124V19.8728C260.124 20.1083 260.218 20.3437 260.36 20.5791C260.595 20.8146 260.783 20.9558 261.019 20.9558Z" fill="#0765FF"/>
</svg>
