<svg width="21" height="21" viewBox="0 0 21 21" fill="none" xmlns="http://www.w3.org/2000/svg">
<path d="M10.994 0.130371C9.01621 0.130371 7.08281 0.716861 5.43832 1.81568C3.79383 2.91449 2.5121 4.47628 1.75523 6.30354C0.998351 8.1308 0.800318 10.1415 1.18617 12.0813C1.57202 14.0211 2.52443 15.8029 3.92296 17.2014C5.32148 18.6 7.10331 19.5524 9.04312 19.9382C10.9829 20.3241 12.9936 20.126 14.8209 19.3692C16.6481 18.6123 18.2099 17.3306 19.3087 15.6861C20.4075 14.0416 20.994 12.1082 20.994 10.1304C20.994 8.81715 20.7354 7.51679 20.2328 6.30354C19.7303 5.09028 18.9937 3.98789 18.0651 3.0593C17.1365 2.13072 16.0341 1.39412 14.8209 0.891576C13.6076 0.389029 12.3072 0.130371 10.994 0.130371ZM14.174 15.2824C14.1367 15.3758 14.0798 15.4601 14.0072 15.5298C13.9346 15.5994 13.8479 15.6527 13.753 15.686C13.6581 15.7193 13.5571 15.732 13.4569 15.7231C13.3567 15.7142 13.2596 15.6839 13.172 15.6344L10.457 13.5244L8.71502 15.1324C8.67459 15.1622 8.6273 15.1814 8.5775 15.1883C8.5277 15.1951 8.47699 15.1893 8.43002 15.1714L8.76402 12.1824L8.77402 12.1914L8.78102 12.1324C8.78102 12.1324 13.666 7.68437 13.865 7.49537C14.067 7.30637 14 7.26537 14 7.26537C14.012 7.03537 13.639 7.26537 13.639 7.26537L7.16602 11.4294L4.47102 10.5114C4.47102 10.5114 4.05702 10.3634 4.01802 10.0364C3.97702 9.71237 4.48402 9.53637 4.48402 9.53637L15.201 5.27837C15.201 5.27837 16.082 4.88637 16.082 5.53637L14.174 15.2824Z" fill="white"/>
</svg>
