<svg width="22" height="18" viewBox="0 0 22 18" fill="none" xmlns="http://www.w3.org/2000/svg">
<path d="M21.46 2.13013C20.69 2.48013 19.86 2.71013 19 2.82013C19.88 2.29013 20.56 1.45013 20.88 0.440127C20.05 0.940127 19.13 1.29013 18.16 1.49013C17.37 0.630127 16.26 0.130127 15 0.130127C12.65 0.130127 10.73 2.05013 10.73 4.42013C10.73 4.76013 10.77 5.09013 10.84 5.40013C7.28004 5.22013 4.11004 3.51013 2.00004 0.920127C1.63004 1.55013 1.42004 2.29013 1.42004 3.07013C1.42004 4.56013 2.17004 5.88013 3.33004 6.63013C2.62004 6.63013 1.96004 6.43013 1.38004 6.13013V6.16013C1.38004 8.24013 2.86004 9.98013 4.82004 10.3701C4.19077 10.5423 3.53013 10.5663 2.89004 10.4401C3.16165 11.2926 3.69358 12.0385 4.41106 12.5731C5.12854 13.1076 5.99549 13.4038 6.89004 13.4201C5.37367 14.6206 3.49404 15.2694 1.56004 15.2601C1.22004 15.2601 0.880039 15.2401 0.540039 15.2001C2.44004 16.4201 4.70004 17.1301 7.12004 17.1301C15 17.1301 19.33 10.5901 19.33 4.92013C19.33 4.73013 19.33 4.55013 19.32 4.36013C20.16 3.76013 20.88 3.00013 21.46 2.13013Z" fill="#FFB800"/>
</svg>
